<?xml version="1.0" encoding="iso-8859-1"?>
<!-- Generator: Adobe Illustrator 16.0.0, SVG Export Plug-In . SVG Version: 6.00 Build 0)  -->
<!DOCTYPE svg PUBLIC "-//W3C//DTD SVG 1.1//EN" "http://www.w3.org/Graphics/SVG/1.1/DTD/svg11.dtd">
<svg version="1.1" id="Capa_1" xmlns="http://www.w3.org/2000/svg" xmlns:xlink="http://www.w3.org/1999/xlink" x="0px" y="0px"
	 width="436.844px" height="436.844px" viewBox="0 0 436.844 436.844" style="enable-background:new 0 0 436.844 436.844;"
	 xml:space="preserve">
<g>
	<g>
		<path d="M0,112.738c0,14.768,11.971,26.737,26.741,26.737c14.766,0,26.735-11.97,26.735-26.737S26.741,67.152,26.741,67.152
			S0,97.971,0,112.738z"/>
		<path d="M433.4,168.984c-4.48-12.273-12.781-22.217-22.069-30.094l2.8-4.878l-27.377-15.716l3.425-6.339l-114.077-61.62
			l-0.003,0.007l-29.593-15.978l-99.853-8.488l-4.177,7.732L97.753,9.454l-66.829,6.595l2.455,24.88L92.6,35.083l37.994,20.522
			l-4.854,8.985l77.802,42.024l13.542,52.983l30.265,16.345l42.795-5.333l58.063,19.044l16.22-30.029l0.003,0.003l4.258-7.886
			l26.524,15.227l1.848-3.219c4.761,4.756,8.188,9.768,10.041,14.841c2.987,8.177,2.056,16.837-2.89,26.548
			c-11.484,22.909-46.961,40.323-105.441,51.761c-9.396,1.838-19.121,2.926-29.418,4.076c-31.361,3.504-66.909,7.477-90.902,36.436
			l-0.108,0.131c-19.171,23.721-22.8,52.629-9.955,79.312c14.652,30.442,48.06,50.753,83.13,50.534l-0.172-27.999
			c-24.474,0.15-47.672-13.786-57.729-34.679c-4.672-9.708-10.042-29.039,6.447-49.499c16.78-20.191,42.558-23.075,72.399-26.409
			c10.403-1.163,21.162-2.364,31.684-4.424c68.384-13.374,109.305-35.188,125.059-66.613
			C437.708,201.058,439.121,184.646,433.4,168.984z M338.556,165.44l-44.354-14.547l-31.7-2.83l4.016-7.431l14.172-26.237
			l66.142,35.727L338.556,165.44z"/>
	</g>
</g>
<g>
</g>
<g>
</g>
<g>
</g>
<g>
</g>
<g>
</g>
<g>
</g>
<g>
</g>
<g>
</g>
<g>
</g>
<g>
</g>
<g>
</g>
<g>
</g>
<g>
</g>
<g>
</g>
<g>
</g>
</svg>
