<?xml version="1.0" encoding="iso-8859-1"?>
<!-- Generator: Adobe Illustrator 16.0.0, SVG Export Plug-In . SVG Version: 6.00 Build 0)  -->
<!DOCTYPE svg PUBLIC "-//W3C//DTD SVG 1.1//EN" "http://www.w3.org/Graphics/SVG/1.1/DTD/svg11.dtd">
<svg version="1.1" id="Capa_1" xmlns="http://www.w3.org/2000/svg" xmlns:xlink="http://www.w3.org/1999/xlink" x="0px" y="0px"
	 width="893.352px" height="893.352px" viewBox="0 0 893.352 893.352" style="enable-background:new 0 0 893.352 893.352;"
	 xml:space="preserve">
<g>
	<g>
		<path d="M505.25,373.603L505.25,373.603c17.938,0,24.4-12.103,14.449-26.997l-93.796-140.695
			c-9.951-14.956-3.422-26.997,14.449-26.997c17.937,0,24.399-12.106,14.449-27L361.006,11.218c-9.951-14.957-26.048-14.957-36,0
			L231.21,151.913c-9.952,14.895-3.422,27,14.449,27s24.4,12.041,14.449,26.997l-93.796,140.695
			c-9.951,14.896-3.422,26.997,14.449,26.997c17.872,0,24.973,12.425,15.782,27.823L35.189,670.269
			c-9.191,15.336-2.093,27.822,15.778,27.822h584.079c17.935,0,24.971-12.486,15.779-27.822L489.47,401.426
			C480.278,386.027,487.314,373.603,505.25,373.603"/>
		<path d="M829.738,827.886H440.354c-17.871,0-32.451-14.514-32.451-32.446c0-17.937-14.576-32.451-32.447-32.451h-64.897
			c-17.871,0-32.447,14.516-32.447,32.451c0,17.934-14.579,32.446-32.45,32.446H115.864c-17.871,0-32.447,14.515-32.447,32.447
			v0.571c0,17.938,14.576,32.447,32.447,32.447l713.874-0.567c17.935,0,32.447-14.516,32.447-32.451
			C862.187,842.4,847.672,827.886,829.738,827.886"/>
	</g>
</g>
<g>
</g>
<g>
</g>
<g>
</g>
<g>
</g>
<g>
</g>
<g>
</g>
<g>
</g>
<g>
</g>
<g>
</g>
<g>
</g>
<g>
</g>
<g>
</g>
<g>
</g>
<g>
</g>
<g>
</g>
</svg>
