<?xml version="1.0" encoding="UTF-8" standalone="no"?>
<svg
   xmlns:dc="http://purl.org/dc/elements/1.1/"
   xmlns:cc="http://creativecommons.org/ns#"
   xmlns:rdf="http://www.w3.org/1999/02/22-rdf-syntax-ns#"
   xmlns:svg="http://www.w3.org/2000/svg"
   xmlns="http://www.w3.org/2000/svg"
   xmlns:sodipodi="http://sodipodi.sourceforge.net/DTD/sodipodi-0.dtd"
   xmlns:inkscape="http://www.inkscape.org/namespaces/inkscape"
   class="ip-inner"
   width="100%"
   height="100%"
   viewBox="0 0 300 160"
   preserveAspectRatio="xMidYMin meet"
   aria-labelledby="logo_title"
   id="svg2"
   version="1.1"
   inkscape:version="0.48.4 r9939"
   sodipodi:docname="text2985.svg">
  <metadata
     id="metadata11">
    <rdf:RDF>
      <cc:Work
         rdf:about="">
        <dc:format>image/svg+xml</dc:format>
        <dc:type
           rdf:resource="http://purl.org/dc/dcmitype/StillImage" />
        <dc:title>Community Engage</dc:title>
      </cc:Work>
    </rdf:RDF>
  </metadata>
  <defs
     id="defs9" />
  <sodipodi:namedview
     pagecolor="#ffffff"
     bordercolor="#666666"
     borderopacity="1"
     objecttolerance="10"
     gridtolerance="10"
     guidetolerance="10"
     inkscape:pageopacity="0"
     inkscape:pageshadow="2"
     inkscape:window-width="1301"
     inkscape:window-height="744"
     id="namedview7"
     showgrid="false"
     inkscape:zoom="2.8284271"
     inkscape:cx="150"
     inkscape:cy="68.573812"
     inkscape:window-x="65"
     inkscape:window-y="24"
     inkscape:window-maximized="1"
     inkscape:current-layer="svg2" />
  <title
     id="logo_title">Community Engage</title>
  <g
     id="g3832">
    <path
       d="M 227.3125 16.96875 L 222.4375 17.75 L 219.46875 24.53125 L 214.5625 19 L 209.6875 19.78125 L 193.875 22.3125 L 194.4375 25.6875 L 200.15625 24.75 L 202.375 38.65625 L 206.84375 37.9375 L 204.625 24.03125 L 210.34375 23.125 L 209.84375 19.9375 L 217.875 28.71875 L 219.03125 36 L 223.5 35.28125 L 222.34375 28 L 227.3125 16.96875 z M 191.5625 22.6875 L 187.09375 23.375 L 189.875 40.65625 L 194.3125 39.96875 L 191.5625 22.6875 z M 182.71875 24.09375 L 178.5 24.75 L 180.40625 36.625 L 172.21875 25.78125 L 167.25 26.5625 L 170 43.84375 L 174.21875 43.15625 L 172.34375 31.3125 L 180.5 42.15625 L 185.5 41.375 L 182.71875 24.09375 z M 162.875 27.25 L 158.4375 27.96875 L 160.09375 38.34375 C 160.32194 39.770941 160.24689 40.807603 159.875 41.5 C 159.50957 42.18346 158.78334 42.611034 157.71875 42.78125 C 156.66185 42.950243 155.84928 42.784208 155.28125 42.25 C 154.7197 41.706853 154.32194 40.708441 154.09375 39.28125 L 152.4375 28.9375 L 148 29.65625 L 149.65625 40 C 150.04727 42.445504 150.92595 44.156629 152.34375 45.15625 C 153.76154 46.155877 155.74278 46.463383 158.25 46.0625 C 160.76492 45.660385 162.52707 44.766876 163.5625 43.375 C 164.5979 41.983133 164.92225 40.070507 164.53125 37.625 L 162.875 27.25 z M 143.59375 30.34375 L 137.9375 31.25 L 135.46875 41.125 L 130.0625 32.5 L 124.375 33.40625 L 127.15625 50.6875 L 131.375 50.03125 L 129.34375 37.375 L 134.8125 46.0625 L 137.65625 45.625 L 140.125 35.65625 L 142.15625 48.28125 L 146.375 47.625 L 143.59375 30.34375 z M 120 34.125 L 114.34375 35.03125 L 111.875 44.90625 L 106.4375 36.28125 L 100.78125 37.1875 L 103.53125 54.46875 L 107.75 53.78125 L 105.75 41.15625 L 111.21875 49.84375 L 114.03125 49.375 L 116.53125 39.4375 L 118.5625 52.0625 L 122.75 51.40625 L 120 34.125 z M 90.46875 38.6875 C 89.833781 38.68716 89.163053 38.732741 88.46875 38.84375 C 85.699236 39.28659 83.671124 40.407964 82.34375 42.25 C 81.024088 44.090834 80.583495 46.418394 81.03125 49.21875 C 81.477771 52.011409 82.609641 54.099946 84.4375 55.4375 C 86.273067 56.773826 88.574233 57.192821 91.34375 56.75 C 94.120961 56.305946 96.180322 55.184574 97.5 53.34375 C 98.819644 51.502937 99.259003 49.167662 98.8125 46.375 C 98.364727 43.574647 97.234092 41.525075 95.40625 40.1875 C 94.035347 39.184346 92.373657 38.688519 90.46875 38.6875 z M 239.84375 38.84375 L 61.8125 68.625 C 61.3485 68.702 61.001 69.0925 61 69.5625 L 61 83.28125 L 43.78125 86.09375 C 43.31525 86.16975 42.96875 86.55925 42.96875 87.03125 L 42.96875 100.90625 L 21.15625 104.53125 C 20.82925 104.58525 20.5645 104.78775 20.4375 105.09375 C 20.3085 105.39775 20.34125 105.76025 20.53125 106.03125 L 30.875 120.75 L 22.125 141.15625 C 21.986 141.48025 22.031 141.847 22.25 142.125 C 22.434 142.359 22.708 142.5 23 142.5 C 23.054 142.5 23.10225 142.509 23.15625 142.5 L 75.90625 133.53125 C 76.38325 133.44925 76.72875 133.0325 76.71875 132.5625 C 76.71875 132.5235 76.6915 132.4765 76.6875 132.4375 C 76.6865 132.4295 76.6885 132.41325 76.6875 132.40625 C 76.6815 132.36125 76.7005 132.294 76.6875 132.25 L 73.125 119.5 L 93.53125 116.0625 C 93.53525 116.0615 93.5565 116.0635 93.5625 116.0625 C 93.5975 116.0555 93.62225 116.04125 93.65625 116.03125 C 93.68425 116.02325 93.724 116.011 93.75 116 C 93.776 115.991 93.7865 115.98175 93.8125 115.96875 C 93.8435 115.95275 93.87725 115.92425 93.90625 115.90625 C 93.92725 115.89125 93.94875 115.89 93.96875 115.875 C 93.99775 115.851 94.0365 115.8385 94.0625 115.8125 C 94.0645 115.8095 94.0595 115.78425 94.0625 115.78125 C 94.0695 115.77425 94.08575 115.78825 94.09375 115.78125 C 94.13775 115.73525 94.1535 115.677 94.1875 115.625 C 94.1995 115.604 94.20775 115.5835 94.21875 115.5625 C 94.24775 115.5085 94.2945 115.435 94.3125 115.375 C 94.3165 115.361 94.3095 115.35775 94.3125 115.34375 C 94.3315 115.27175 94.34175 115.202 94.34375 115.125 C 94.34375 115.104 94.34475 115.0825 94.34375 115.0625 C 94.34175 115.0255 94.34975 114.9745 94.34375 114.9375 C 94.34075 114.9165 94.3165 114.92625 94.3125 114.90625 C 94.3095 114.89325 94.3155 114.85675 94.3125 114.84375 L 90.8125 102.3125 L 211.28125 82.03125 L 212.09375 95.0625 C 212.09475 95.0755 212.09275 95.08175 212.09375 95.09375 C 212.09675 95.11575 212.08875 95.13525 212.09375 95.15625 C 212.10075 95.20125 212.112 95.23825 212.125 95.28125 C 212.127 95.28925 212.123 95.3055 212.125 95.3125 C 212.15 95.3845 212.209 95.438 212.25 95.5 C 212.258 95.514 212.242 95.5495 212.25 95.5625 C 212.289 95.6175 212.35625 95.6425 212.40625 95.6875 L 212.40625 95.71875 C 212.46325 95.76675 212.52575 95.80875 212.59375 95.84375 C 212.60075 95.84675 212.618 95.83875 212.625 95.84375 C 212.636 95.84775 212.64625 95.871 212.65625 95.875 C 212.70025 95.896 212.73425 95.89325 212.78125 95.90625 C 212.79925 95.91225 212.82375 95.9335 212.84375 95.9375 C 212.90575 95.9515 212.96525 95.9375 213.03125 95.9375 C 213.08325 95.9375 213.1335 95.9465 213.1875 95.9375 L 227.59375 93.53125 L 227.9375 106.8125 C 227.9475 107.1665 228.15175 107.49725 228.46875 107.65625 C 228.60475 107.72625 228.75825 107.75 228.90625 107.75 C 228.97225 107.75 229.02875 107.73275 229.09375 107.71875 C 229.13575 107.72475 229.17575 107.75 229.21875 107.75 C 229.27275 107.75 229.35125 107.72775 229.40625 107.71875 L 278.84375 99.40625 C 279.16975 99.35025 279.4355 99.14775 279.5625 98.84375 C 279.6885 98.53975 279.65775 98.17725 279.46875 97.90625 L 269.125 83.1875 L 277.875 62.78125 C 278.014 62.45925 277.966 62.0885 277.75 61.8125 C 277.533 61.5345 277.19275 61.3825 276.84375 61.4375 L 256.9375 64.65625 L 256.96875 51.3125 C 256.96875 51.0285 256.841 50.77675 256.625 50.59375 C 256.408 50.41075 256.12275 50.328 255.84375 50.375 L 240.96875 52.84375 L 240.96875 39.78125 C 240.96875 39.49725 240.84 39.2455 240.625 39.0625 C 240.409 38.8795 240.12475 38.79575 239.84375 38.84375 z M 239.03125 40.90625 L 239.03125 75.4375 L 62.90625 105.03125 L 62.9375 70.40625 L 239.03125 40.90625 z M 73 41.40625 C 72.528495 41.426258 72.044653 41.454167 71.5625 41.53125 C 68.684983 41.991359 66.517712 43.181285 65.09375 45.0625 C 63.668552 46.936031 63.183412 49.238217 63.625 52 C 64.065353 54.754087 65.247937 56.812821 67.1875 58.15625 C 69.125823 59.491969 71.52873 59.92884 74.40625 59.46875 C 75.370552 59.314565 76.303606 59.045358 77.15625 58.6875 C 78.008867 58.329645 78.812589 57.8988 79.5625 57.34375 L 78.96875 53.75 C 78.233327 54.445148 77.510356 54.984429 76.75 55.375 C 75.989617 55.765581 75.137157 56.045654 74.25 56.1875 C 72.660801 56.441603 71.354374 56.122769 70.28125 55.25 C 69.208112 54.377243 68.50368 53.06331 68.21875 51.28125 C 67.932577 49.491495 68.190003 48.00763 68.9375 46.84375 C 69.684985 45.679899 70.848303 44.972864 72.4375 44.71875 C 73.324659 44.576916 74.186992 44.584755 75.03125 44.71875 C 75.875485 44.852776 76.74074 45.131339 77.65625 45.5625 L 77.09375 41.96875 C 76.208158 41.675221 75.296695 41.511675 74.375 41.4375 C 73.914142 41.400432 73.471505 41.386242 73 41.40625 z M 89.5 42 C 90.644815 41.929459 91.611163 42.28968 92.40625 43.0625 C 93.314898 43.945752 93.927634 45.304389 94.21875 47.125 C 94.508605 48.93792 94.337941 50.408723 93.75 51.53125 C 93.162034 52.653789 92.209206 53.312928 90.84375 53.53125 C 89.485988 53.748348 88.346154 53.414492 87.4375 52.53125 C 86.528834 51.648018 85.914864 50.312918 85.625 48.5 C 85.333893 46.679387 85.505791 45.185047 86.09375 44.0625 C 86.681699 42.939981 87.64224 42.27961 89 42.0625 C 89.170682 42.035211 89.336455 42.010077 89.5 42 z M 255.03125 52.46875 L 255.03125 86.96875 L 217.09375 93.34375 L 240.21875 77.1875 C 240.65975 77.0925 240.96875 76.706 240.96875 76.25 L 240.96875 54.8125 L 255.03125 52.46875 z M 196.125 56 L 193.78125 56.40625 L 190.875 74.15625 L 193.0625 73.75 L 193.6875 69.21875 L 200.59375 68 L 202.75 72.0625 L 204.90625 71.65625 L 196.125 56 z M 189.46875 57.15625 L 176.5 59.4375 L 176.84375 61.34375 L 182.28125 60.40625 L 184.875 75.1875 L 186.96875 74.84375 L 184.34375 60.03125 L 189.78125 59.0625 L 189.46875 57.15625 z M 195.34375 58.4375 L 199.625 66.25 L 194 67.25 L 195.34375 58.4375 z M 172.21875 60.21875 L 169.875 60.625 L 166.96875 78.375 L 169.15625 77.96875 L 169.78125 73.4375 L 176.6875 72.21875 L 178.84375 76.28125 L 181 75.875 L 172.21875 60.21875 z M 171.4375 62.65625 L 175.71875 70.46875 L 170.09375 71.46875 L 171.4375 62.65625 z M 156.46875 63.125 C 155.81081 63.154051 155.11675 63.212893 154.375 63.34375 L 150.125 64.09375 L 153.0625 80.8125 L 157.3125 80.0625 C 160.26583 79.541468 162.34359 78.471366 163.5 76.875 C 164.65638 75.278639 164.97677 73.067205 164.46875 70.1875 C 163.96332 67.322738 162.90594 65.316793 161.28125 64.21875 C 160.06173 63.389648 158.44257 63.037848 156.46875 63.125 z M 275.4375 63.625 L 267.15625 82.90625 C 267.02425 83.21325 267.058 83.56975 267.25 83.84375 L 277 97.78125 L 232.90625 105.1875 L 256.25 88.875 C 256.355 88.802 256.434 88.69475 256.5 88.59375 C 256.768 88.41975 256.9375 88.11525 256.9375 87.78125 L 256.9375 66.625 L 275.4375 63.625 z M 156.53125 65 C 157.93735 64.953867 159.06609 65.252279 159.9375 65.90625 C 161.10488 66.769577 161.88639 68.324406 162.28125 70.5625 C 162.67872 72.815534 162.48766 74.531881 161.6875 75.75 C 160.89414 76.966927 159.42495 77.783569 157.3125 78.15625 L 154.8125 78.59375 L 152.53125 65.59375 L 155.03125 65.15625 C 155.55936 65.063083 156.06255 65.015378 156.53125 65 z M 139.3125 66 L 137.3125 66.375 L 139.78125 80.34375 L 130.5 67.5625 L 127.71875 68.0625 L 130.6875 84.75 L 132.6875 84.40625 L 130.21875 70.4375 L 139.46875 83.21875 L 142.25 82.71875 L 139.3125 66 z M 124.125 68.6875 L 114.4375 70.40625 L 117.375 87.125 L 127.25 85.375 L 126.90625 83.46875 L 119.125 84.84375 L 118.0625 78.78125 L 125.34375 77.5 L 125 75.59375 L 117.71875 76.875 L 116.84375 71.9375 L 124.4375 70.59375 L 124.125 68.6875 z M 107.65625 71.6875 C 107.27044 71.700753 106.86648 71.736822 106.4375 71.8125 L 101.75 72.625 L 104.71875 89.34375 L 106.78125 88.96875 L 105.59375 82.28125 L 108.1875 81.8125 C 109.90343 81.509779 111.14866 80.841158 111.875 79.84375 C 112.60816 78.845154 112.82212 77.523749 112.53125 75.875 C 112.243 74.241197 111.59312 73.093699 110.5625 72.40625 C 109.79367 71.884187 108.81367 71.64774 107.65625 71.6875 z M 107.46875 73.59375 C 108.12768 73.582798 108.68938 73.75496 109.15625 74.09375 C 109.77873 74.545502 110.16738 75.281576 110.34375 76.28125 C 110.52143 77.28841 110.39907 78.112537 109.96875 78.75 C 109.53842 79.387486 108.83893 79.767451 107.875 79.9375 L 105.28125 80.40625 L 104.15625 74.125 L 106.75 73.65625 C 106.99098 73.613739 107.24911 73.597401 107.46875 73.59375 z M 92.9375 74.03125 C 92.437322 74.018045 91.942907 74.061576 91.40625 74.15625 C 89.252775 74.536187 87.63937 75.635431 86.625 77.4375 C 85.61615 79.230933 85.346577 81.452796 85.8125 84.09375 C 86.278424 86.734721 87.313357 88.722575 88.875 90.0625 C 90.443475 91.401226 92.284022 91.879921 94.4375 91.5 C 96.584125 91.121288 98.178638 90.012175 99.1875 88.21875 C 100.19502 86.417875 100.46459 84.227264 100 81.59375 C 99.534063 78.952798 98.53038 76.933694 96.96875 75.59375 C 95.796524 74.583222 94.438034 74.070866 92.9375 74.03125 z M 92.8125 75.90625 C 93.86305 75.957462 94.775559 76.385674 95.59375 77.1875 C 96.691489 78.255427 97.440012 79.857483 97.8125 81.96875 C 98.183648 84.072579 98.041034 85.808423 97.375 87.1875 C 96.71578 88.565383 95.629004 89.390921 94.125 89.65625 C 92.620983 89.921602 91.323331 89.504209 90.21875 88.4375 C 89.120997 87.369594 88.371157 85.791327 88 83.6875 C 87.627522 81.576231 87.771452 79.847848 88.4375 78.46875 C 89.110379 77.088476 90.214734 76.265357 91.71875 76 C 92.094751 75.933669 92.462317 75.889179 92.8125 75.90625 z M 61 85.21875 L 60.96875 106.1875 C 60.96875 106.2045 60.96875 106.20175 60.96875 106.21875 C 60.97075 106.25975 60.992 106.30475 61 106.34375 C 61.004 106.37075 61.02325 106.4115 61.03125 106.4375 C 61.04125 106.4755 61.0475 106.49525 61.0625 106.53125 C 61.0725 106.55725 61.08175 106.601 61.09375 106.625 C 61.11175 106.66 61.13525 106.68575 61.15625 106.71875 C 61.17225 106.73975 61.1705 106.76125 61.1875 106.78125 C 61.2155 106.81525 61.24925 106.843 61.28125 106.875 C 61.29425 106.888 61.2985 106.89425 61.3125 106.90625 C 61.3155 106.90925 61.33975 106.9355 61.34375 106.9375 C 61.36175 106.9535 61.356 106.95475 61.375 106.96875 C 61.405 106.98975 61.43775 107.01325 61.46875 107.03125 C 61.48975 107.04225 61.50925 107.0535 61.53125 107.0625 C 61.56525 107.0785 61.62125 107.08275 61.65625 107.09375 C 61.66625 107.09675 61.6775 107.09075 61.6875 107.09375 L 89 114.875 L 44.90625 122.28125 L 44.90625 87.875 L 61 85.21875 z M 168.625 100.5 L 165.53125 100.9375 L 165.375 103.9375 C 165.59377 103.80962 165.81853 103.7021 166.03125 103.625 C 166.2462 103.54496 166.4525 103.49724 166.65625 103.46875 C 167.04312 103.41465 167.35372 103.46924 167.59375 103.625 C 167.83636 103.7804 167.98436 104.00847 168.03125 104.34375 C 168.09471 104.79767 167.97542 105.21459 167.6875 105.5625 C 167.40214 105.91006 167.00292 106.11717 166.5 106.1875 C 166.25757 106.2214 165.99779 106.21071 165.75 106.1875 C 165.50443 106.16137 165.25351 106.11413 165 106.03125 L 164.96875 106.78125 C 165.24594 106.82664 165.50179 106.83635 165.75 106.84375 C 165.99822 106.85115 166.23664 106.84496 166.46875 106.8125 C 166.82208 106.76309 167.15316 106.69162 167.4375 106.5625 C 167.72405 106.4304 167.97301 106.25642 168.15625 106.0625 C 168.41451 105.78448 168.57417 105.46165 168.6875 105.125 C 168.80344 104.78799 168.86047 104.46802 168.8125 104.125 C 168.74398 103.63498 168.53702 103.27426 168.1875 103.03125 C 167.83798 102.78825 167.37762 102.67535 166.84375 102.75 C 166.71737 102.76767 166.59003 102.80841 166.46875 102.84375 C 166.35005 102.87873 166.23822 102.91344 166.125 102.96875 L 166.21875 101.5 L 168.59375 101.1875 L 168.625 100.5 z M 162.5625 101.375 L 161.75 101.46875 L 160.375 101.9375 L 160.3125 102.65625 L 161.71875 102.15625 L 161.5 106.71875 L 160.21875 106.90625 L 160.1875 107.59375 L 163.5 107.125 L 163.53125 106.4375 L 162.28125 106.625 L 162.5625 101.375 z M 156.9375 102.03125 C 156.56096 102.08391 156.22917 102.25412 155.9375 102.5 C 155.6484 102.74553 155.43319 103.07996 155.25 103.5 C 155.06646 103.91746 154.94023 104.36365 154.875 104.875 C 154.81198 105.38343 154.80648 105.88498 154.875 106.375 C 154.96552 107.02234 155.175 107.50034 155.5 107.8125 C 155.82501 108.12467 156.2445 108.25819 156.75 108.1875 C 157.14202 108.13268 157.48664 107.96242 157.78125 107.71875 C 158.07808 107.47215 158.31424 107.13915 158.5 106.71875 C 158.68059 106.29908 158.78296 105.84923 158.84375 105.34375 C 158.90677 104.83533 158.91299 104.33894 158.84375 103.84375 C 158.7525 103.19125 158.54598 102.71548 158.21875 102.40625 C 157.8941 102.09667 157.46106 101.95805 156.9375 102.03125 z M 157 102.65625 C 157.29401 102.61515 157.50726 102.70796 157.6875 102.90625 C 157.86998 103.10162 158.00299 103.41821 158.0625 103.84375 C 158.13788 104.38279 158.13036 104.90737 158.0625 105.4375 C 157.99685 105.9647 157.87494 106.41058 157.6875 106.78125 C 157.57413 107.00484 157.44184 107.18224 157.28125 107.3125 C 157.12029 107.44017 156.92507 107.53366 156.71875 107.5625 C 156.42474 107.60362 156.21371 107.50786 156.03125 107.3125 C 155.85099 107.1142 155.71576 106.80055 155.65625 106.375 C 155.58124 105.83855 155.58802 105.3088 155.65625 104.78125 C 155.72668 104.25076 155.84158 103.81113 156.03125 103.4375 C 156.14461 103.21393 156.27655 103.03394 156.4375 102.90625 C 156.60067 102.77563 156.80399 102.68367 157 102.65625 z M 152.09375 102.75 C 151.97744 102.74917 151.87637 102.76358 151.75 102.78125 C 151.50241 102.81587 151.21992 102.86352 150.9375 102.96875 C 150.65508 103.07399 150.36464 103.23516 150.0625 103.40625 L 150.03125 104.1875 C 150.34825 103.97227 150.65058 103.78573 150.9375 103.65625 C 151.22441 103.52676 151.50499 103.47177 151.75 103.4375 C 152.03369 103.39784 152.27137 103.42971 152.46875 103.5625 C 152.66617 103.6953 152.77751 103.87484 152.8125 104.125 C 152.84603 104.36486 152.8024 104.62491 152.6875 104.875 C 152.5748 105.12216 152.36848 105.43081 152.0625 105.78125 L 149.78125 108.375 L 149.71875 109.03125 L 153.46875 108.53125 L 153.53125 107.84375 L 150.78125 108.25 L 152.96875 105.75 C 153.23665 105.44696 153.42139 105.16121 153.53125 104.875 C 153.64077 104.58622 153.6661 104.29402 153.625 104 C 153.56404 103.56414 153.37824 103.22495 153.03125 103 C 152.77294 102.83103 152.44267 102.75249 152.09375 102.75 z M 42.96875 102.875 L 42.96875 123.4375 C 42.96875 123.7205 43.0955 123.97325 43.3125 124.15625 C 43.4375 124.26125 43.593 124.344 43.75 124.375 C 43.838 124.439 43.9515 124.50025 44.0625 124.53125 L 71.5 132.3125 L 24.59375 140.28125 L 32.84375 121.03125 C 32.97475 120.72525 32.942 120.36775 32.75 120.09375 L 23 106.1875 L 42.96875 102.875 z M 143.0625 103.75 L 139.6875 104.3125 L 139.5625 104.90625 L 140.9375 104.6875 L 139.6875 110.71875 L 140.34375 110.625 L 141.5625 104.59375 L 142.9375 104.34375 L 143.0625 103.75 z M 135.96875 104.875 C 135.87428 104.87159 135.769 104.8875 135.65625 104.90625 C 134.74425 105.05825 134.02675 105.94875 133.84375 106.84375 C 133.64275 107.81675 134.0445 108.051 134.6875 108.375 C 135.2725 108.661 135.76675 108.876 135.59375 109.75 C 135.43075 110.545 134.932 111.00075 134.375 111.09375 C 133.597 111.22375 133.558 110.69175 133.625 109.96875 L 132.96875 110.15625 C 132.85375 111.19325 133.118 111.90775 134.25 111.71875 C 135.325 111.53875 136.039 110.63775 136.25 109.59375 C 136.461 108.57075 135.9935 108.231 135.3125 107.875 C 134.4305 107.418 134.36275 107.286 134.46875 106.75 C 134.58375 106.193 134.92725 105.63325 135.53125 105.53125 C 136.07825 105.44025 136.21875 105.904 136.21875 106.375 L 136.875 106.15625 C 136.875 105.45012 136.63006 104.89886 135.96875 104.875 z M 131.59375 105.6875 L 128.46875 106.1875 L 127.125 112.8125 L 130.21875 112.3125 L 130.34375 111.71875 L 127.875 112.125 L 128.4375 109.46875 L 130.46875 109.125 L 130.59375 108.53125 L 128.53125 108.875 L 129 106.6875 L 131.46875 106.28125 L 131.59375 105.6875 z M 146.5 108.15625 L 145.625 108.3125 L 145.3125 109.78125 L 146.1875 109.625 L 146.5 108.15625 z M 198.625 113.5 C 198.23436 113.5 197.85937 113.51825 197.46875 113.53125 C 197.09114 113.54475 196.70311 113.53127 196.3125 113.53125 C 196.03905 113.64843 195.74999 113.71877 195.4375 113.71875 C 195.28124 113.71875 195.12499 113.7005 194.96875 113.6875 C 194.8125 113.6615 194.65625 113.651 194.5 113.625 C 194.43485 113.67712 194.38285 113.7109 194.34375 113.75 C 194.3177 113.7891 194.22916 113.81251 194.125 113.8125 C 193.90364 113.8386 193.73177 113.86715 193.5625 113.90625 C 193.39323 113.94532 193.21875 113.9974 193.0625 114.0625 C 192.91927 114.11459 192.78125 114.19015 192.625 114.28125 C 192.48177 114.35939 192.30729 114.45834 192.125 114.5625 C 192.00781 114.64064 191.89323 114.70315 191.75 114.78125 C 191.61979 114.8464 191.45573 114.8984 191.3125 114.9375 C 191.2995 115.01564 191.2891 115.09115 191.25 115.15625 L 191.125 115.34375 L 190.5 115.34375 C 190.39584 115.39584 190.3021 115.4714 190.25 115.5625 C 190.19792 115.65366 190.13542 115.72915 190.03125 115.78125 C 190.01875 115.89845 190 116.02605 190 116.15625 L 190 116.53125 C 190 116.90887 190.00525 117.27865 190.03125 117.65625 C 190.05518 118.00242 190.06051 118.34134 190.0625 118.6875 C 190.05179 118.68763 190.04203 118.6875 190.03125 118.6875 L 189.90625 118.6875 C 189.86714 118.6875 189.8021 118.66925 189.75 118.65625 C 189.60675 118.76043 189.44009 118.8594 189.21875 118.9375 C 189.0104 119.0027 188.80728 119.03126 188.625 119.03125 C 188.49478 119.03125 188.37235 119.02085 188.28125 118.96875 C 188.20311 119.04693 188.13541 119.0859 188.03125 119.125 C 187.92707 119.16408 187.80985 119.2344 187.71875 119.3125 C 187.11978 119.49481 186.51822 119.65626 185.90625 119.8125 C 185.29426 119.95574 184.67447 120.11199 184.0625 120.28125 C 183.46353 120.45053 182.86718 120.63543 182.28125 120.84375 C 181.6953 121.0521 181.12239 121.32553 180.5625 121.625 C 180.5625 121.599 180.55725 121.55725 180.53125 121.53125 C 180.51825 121.50515 180.49475 121.50001 180.46875 121.5 C 180.44275 121.5 180.43225 121.51825 180.40625 121.53125 C 180.38025 121.54375 180.3385 121.53126 180.3125 121.53125 C 180.2865 121.53125 180.25785 121.50785 180.21875 121.46875 C 180.20572 121.57293 180.15885 121.6484 180.09375 121.6875 C 180.04166 121.7266 179.99735 121.75525 179.90625 121.78125 C 179.8151 121.79435 179.7161 121.83075 179.625 121.84375 C 179.53385 121.84375 179.4401 121.86715 179.375 121.90625 C 179.27083 122.06251 179.1901 122.22397 179.125 122.40625 C 179.0729 122.57553 179.0625 122.75521 179.0625 122.9375 C 179.0625 123.28906 179.19531 123.57813 179.46875 123.8125 C 179.57291 123.7994 179.6719 123.79425 179.75 123.78125 C 179.84115 123.76875 179.9089 123.75 180 123.75 C 180.09114 123.75 180.20833 123.7735 180.3125 123.8125 C 180.50781 123.66928 180.70312 123.54685 180.9375 123.46875 C 181.18489 123.39063 181.4401 123.3151 181.6875 123.25 C 181.93489 123.17188 182.18489 123.0911 182.40625 123 C 182.6276 122.90886 182.81249 122.77605 182.96875 122.59375 C 183.02083 122.63285 183.07815 122.65626 183.15625 122.65625 C 183.29947 122.65626 183.43228 122.60935 183.5625 122.53125 C 183.70572 122.44013 183.86197 122.40626 184.03125 122.40625 L 184.0625 122.40625 C 184.16671 122.71876 184.25525 123.04167 184.28125 123.40625 C 184.30735 123.77084 184.31249 124.11199 184.3125 124.4375 C 184.3125 124.63282 184.29425 124.83594 184.28125 125.03125 C 184.28124 125.22657 184.28124 125.42969 184.28125 125.625 C 184.39842 125.74219 184.47915 125.89323 184.53125 126.0625 C 184.58335 126.21875 184.62499 126.36198 184.625 126.53125 C 184.625 126.6224 184.61975 126.74479 184.59375 126.875 C 183.86458 127.01823 183.04687 127.14584 182.1875 127.25 C 181.32812 127.34112 180.54166 127.375 179.8125 127.375 C 179.76041 127.375 179.65103 127.3281 179.46875 127.25 C 179.28645 127.17192 179.125 127.15625 178.96875 127.15625 C 178.94275 127.15625 178.88285 127.14325 178.84375 127.15625 L 178.75 127.15625 C 178.51562 126.96094 178.26823 126.8281 177.96875 126.75 C 177.66927 126.65886 177.42447 126.57292 177.28125 126.46875 C 177.20312 126.40365 177.12235 126.28647 177.03125 126.15625 C 176.95312 126.02605 176.8906 125.90625 176.8125 125.75 L 176.5625 125.28125 C 176.4974 125.13802 176.4401 125.01042 176.375 124.90625 C 176.4141 124.73699 176.4375 124.55209 176.4375 124.34375 C 176.4375 124.17448 176.4141 124.03125 176.375 123.875 C 176.50521 123.47136 176.62765 123.0599 176.71875 122.65625 C 176.82292 122.25261 176.92708 121.85417 177.03125 121.4375 C 177.26562 121.33334 177.4375 121.16407 177.59375 120.96875 C 177.75 120.77345 177.90103 120.58334 178.03125 120.375 C 178.17447 120.15366 178.34375 119.9323 178.5 119.75 C 178.66927 119.5547 178.8776 119.41668 179.125 119.3125 C 179.151 119.24741 179.1615 119.16668 179.1875 119.0625 C 179.22656 118.95835 179.2839 118.90626 179.375 118.90625 C 179.44012 118.90625 179.50525 118.9115 179.53125 118.9375 C 179.57031 118.951 179.6224 118.96876 179.6875 118.96875 C 179.661 118.8646 179.64325 118.7656 179.65625 118.6875 C 179.68225 118.59637 179.724 118.51042 179.75 118.40625 C 179.98437 118.35417 180.19791 118.27345 180.40625 118.15625 C 180.61457 118.02605 180.80468 117.89845 181 117.78125 C 181.20832 117.65105 181.41666 117.5287 181.625 117.4375 C 181.84634 117.33335 182.08333 117.28127 182.34375 117.28125 C 182.53906 117.28125 182.73697 117.3229 182.90625 117.375 C 183.17968 117.21876 183.34115 116.97397 183.40625 116.6875 C 183.47135 116.38803 183.49999 116.09897 183.5 115.8125 C 183.44791 115.8255 183.401 115.8255 183.375 115.8125 C 183.3619 115.7865 183.35675 115.7761 183.34375 115.75 L 183.34375 115.65625 C 183.34375 115.61715 183.3255 115.55735 183.3125 115.53125 C 183.20833 115.38804 183.05208 115.3021 182.84375 115.25 C 182.64843 115.1849 182.48697 115.15626 182.34375 115.15625 C 182.0052 115.15626 181.65624 115.19015 181.34375 115.28125 C 181.04426 115.37243 180.74999 115.44275 180.4375 115.46875 C 180.29426 115.66408 180.11457 115.83856 179.90625 115.96875 C 179.69791 116.08595 179.48437 116.1719 179.25 116.25 C 179.06771 116.53647 178.83593 116.79168 178.5625 117 C 178.30208 117.20834 178.04166 117.40366 177.78125 117.625 C 177.71614 117.8073 177.63021 117.96355 177.5 118.09375 C 177.38281 118.22397 177.2552 118.36981 177.125 118.5 C 177.00781 118.6172 176.88541 118.75001 176.78125 118.90625 C 176.67703 119.04949 176.61975 119.21616 176.59375 119.4375 C 176.20313 119.73699 175.88542 120.1146 175.625 120.53125 C 175.3776 120.93491 175.14583 121.33855 174.9375 121.78125 C 174.89841 121.85939 174.8516 121.95834 174.8125 122.0625 C 174.76041 122.15365 174.7135 122.2344 174.6875 122.3125 C 174.6614 122.37761 174.65625 122.4479 174.65625 122.5 C 174.65625 122.55209 174.638 122.6224 174.625 122.6875 C 174.58594 122.90886 174.5286 123.11719 174.4375 123.3125 C 174.34635 123.50782 174.24218 123.69271 174.125 123.875 C 174.2552 123.96615 174.35415 124.0339 174.40625 124.125 C 174.31513 124.21615 174.28126 124.38542 174.28125 124.59375 L 174.40625 124.875 C 174.34115 125.56511 174.47917 126.14324 174.84375 126.625 C 175.22136 127.10678 175.70312 127.50521 176.25 127.84375 C 176.28902 127.9349 176.3229 128.0104 176.375 128.0625 C 176.4271 128.10157 176.46875 128.17708 176.46875 128.28125 C 176.95052 128.38542 177.41927 128.51824 177.875 128.6875 C 178.34375 128.84376 178.8177 128.9714 179.3125 129.0625 C 179.3776 129.0234 179.4349 129.00001 179.5 129 C 179.5651 128.9875 179.6224 128.96875 179.6875 128.96875 C 179.77864 128.96875 179.89583 129.00525 180 129.03125 C 180.11718 129.04435 180.2214 129.0729 180.3125 129.125 C 180.2994 129.0729 180.2865 129.04425 180.3125 129.03125 C 180.35159 129.00515 180.3984 128.96875 180.4375 128.96875 C 180.48958 128.95625 180.54165 128.96875 180.59375 128.96875 C 180.64584 128.96875 180.69275 128.9635 180.71875 128.9375 C 181.42187 128.9375 182.10937 128.89585 182.8125 128.84375 C 183.52864 128.77865 184.22915 128.66927 184.90625 128.5 C 185.10155 128.72136 185.29947 128.9401 185.46875 129.1875 C 185.63801 129.42187 185.79947 129.67188 185.96875 129.90625 C 186.15103 130.12761 186.33593 130.33594 186.53125 130.53125 C 186.73957 130.73958 186.98958 130.90625 187.25 131.0625 C 187.43228 130.98441 187.56505 130.96875 187.65625 130.96875 C 187.74738 130.96875 187.86717 130.9505 188.0625 130.9375 C 188.17967 130.79427 188.2734 130.61979 188.3125 130.4375 C 188.3515 130.26823 188.37498 130.08854 188.375 129.90625 C 188.375 129.77605 188.35675 129.66146 188.34375 129.53125 C 188.33075 129.38802 188.30725 129.25521 188.28125 129.125 C 187.91666 129.0599 187.6927 128.88542 187.5625 128.625 C 187.4453 128.36459 187.3281 128.08073 187.25 127.78125 C 187.18488 127.46875 187.08592 127.19792 186.96875 126.9375 C 186.86457 126.66407 186.65103 126.48435 186.3125 126.40625 C 186.3386 126.32813 186.34374 126.2526 186.34375 126.1875 C 186.34374 125.9922 186.30467 125.80729 186.1875 125.625 C 186.07035 125.42969 185.99475 125.22136 185.96875 125 L 185.96875 124.90625 C 185.96874 124.43751 185.93485 123.98699 185.84375 123.53125 C 185.75264 123.06251 185.68748 122.59376 185.6875 122.125 C 185.75258 122.07293 185.7995 122.02085 185.8125 121.96875 C 185.83853 121.90364 185.89065 121.86985 185.96875 121.84375 C 186.04687 121.81765 186.1224 121.78126 186.1875 121.78125 C 186.25259 121.78125 186.3099 121.776 186.375 121.75 C 186.51822 121.6849 186.65103 121.6276 186.78125 121.5625 C 186.91144 121.48441 187.08072 121.43751 187.25 121.4375 C 187.32812 121.4375 187.39582 121.44275 187.5 121.46875 C 187.6953 121.27345 187.9401 121.1537 188.1875 121.0625 C 188.44791 120.97136 188.70832 120.89585 188.96875 120.84375 C 189.15448 120.79954 189.32628 120.76298 189.5 120.71875 C 189.50682 120.74715 189.49119 120.78608 189.5 120.8125 C 189.53902 120.91667 189.60415 121.04428 189.65625 121.1875 C 189.63025 121.27865 189.60675 121.38282 189.59375 121.5 C 189.59375 121.61719 189.5755 121.72657 189.5625 121.84375 C 189.5495 121.96095 189.526 122.07031 189.5 122.1875 C 189.46098 122.29167 189.4271 122.3724 189.375 122.4375 C 189.4271 122.59376 189.4375 122.79167 189.4375 123 C 189.4375 123.20834 189.43225 123.41667 189.40625 123.625 C 189.38015 123.82031 189.375 124.01042 189.375 124.21875 C 189.375 124.36198 189.38025 124.48959 189.40625 124.59375 C 189.43235 124.69792 189.4609 124.82553 189.5 124.96875 C 189.5125 124.98175 189.53125 125.00525 189.53125 125.03125 C 189.53125 125.09634 189.4896 125.112 189.4375 125.125 C 189.3854 125.13802 189.375 125.1849 189.375 125.25 L 189.375 125.3125 C 189.50521 125.65104 189.63281 126.01042 189.75 126.375 C 189.86718 126.73959 190.0052 127.0625 190.1875 127.375 C 190.38281 127.6875 190.63281 127.94791 190.90625 128.15625 C 191.17969 128.3776 191.52604 128.50525 191.96875 128.53125 C 191.94275 128.64847 191.9714 128.70575 192.0625 128.71875 C 192.16666 128.74479 192.2604 128.8099 192.3125 128.875 C 192.49479 128.875 192.65625 128.86975 192.8125 128.84375 C 192.96875 128.83125 193.125 128.8125 193.28125 128.8125 C 193.46354 128.8125 193.62499 128.8359 193.78125 128.875 C 194.11978 128.69271 194.47395 128.50781 194.8125 128.3125 C 195.16406 128.11718 195.52864 127.96093 195.90625 127.84375 C 196.01041 127.71354 196.10156 127.57291 196.21875 127.46875 C 196.33593 127.3776 196.48176 127.29166 196.625 127.1875 C 196.7552 127.13538 196.8359 127.1016 196.875 127.0625 C 197.07031 126.90625 197.27343 126.66145 197.46875 126.375 C 197.67708 126.07552 197.84895 125.76302 198.03125 125.4375 C 198.21353 125.11198 198.40624 124.79428 198.5625 124.46875 C 198.71874 124.14324 198.85155 123.85938 198.96875 123.625 C 198.87759 123.46875 198.78385 123.32552 198.71875 123.15625 C 198.66666 122.97396 198.60415 122.79948 198.5 122.65625 C 198.43488 122.68225 198.35935 122.70575 198.28125 122.71875 C 198.21614 122.73125 198.15885 122.75001 198.09375 122.75 C 198.02864 122.75 197.9401 122.73175 197.875 122.71875 C 197.82291 122.70575 197.78385 122.68225 197.71875 122.65625 C 197.64061 122.83854 197.53125 122.97656 197.375 123.09375 C 197.23177 123.21094 197.0677 123.35677 196.9375 123.5 L 196.9375 124.0625 C 196.76822 124.16667 196.6536 124.31772 196.5625 124.5 C 196.48437 124.6823 196.4036 124.84896 196.3125 125.03125 C 196.16926 125.08333 195.99999 125.18229 195.84375 125.3125 C 195.68749 125.42969 195.53124 125.55729 195.375 125.6875 C 195.23176 125.81771 195.09895 125.92709 194.96875 126.03125 C 194.85156 126.12237 194.7656 126.1875 194.6875 126.1875 C 194.63541 126.1875 194.58335 126.16925 194.53125 126.15625 C 194.49223 126.14375 194.45835 126.125 194.40625 126.125 L 194.28125 126.15625 C 194.16406 126.33854 194.02604 126.45315 193.84375 126.53125 C 193.66145 126.60933 193.45833 126.65625 193.25 126.65625 C 192.9375 126.65625 192.67708 126.59375 192.46875 126.4375 C 192.26042 126.26823 192.09895 126.05989 191.96875 125.8125 C 191.85156 125.5651 191.7526 125.28646 191.6875 125 C 191.6354 124.70052 191.62499 124.4349 191.625 124.1875 C 191.625 124.0573 191.63025 123.91146 191.65625 123.78125 C 191.68235 123.65104 191.6875 123.52344 191.6875 123.40625 C 191.6875 123.30206 191.6536 123.2865 191.5625 123.3125 C 191.47135 123.3255 191.41925 123.28385 191.40625 123.21875 C 191.4844 123.12761 191.5365 123 191.5625 122.84375 C 191.5886 122.6875 191.59374 122.54427 191.59375 122.375 C 191.60625 122.19271 191.62499 122.01303 191.625 121.84375 C 191.638 121.67449 191.6484 121.52344 191.6875 121.40625 C 191.77865 121.3281 191.89583 121.276 192 121.25 C 192.10416 121.21094 192.1849 121.13543 192.25 121.03125 C 192.32812 121.04435 192.39065 121.0495 192.46875 121.0625 L 192.71875 121.0625 C 193.0052 121.0625 193.28906 121.03385 193.5625 120.96875 C 193.83593 120.90365 194.10676 120.87501 194.40625 120.875 C 194.53645 120.875 194.65365 120.89325 194.71875 120.90625 C 194.74485 120.88017 194.74999 120.83335 194.75 120.78125 C 194.7631 120.71615 194.79165 120.68751 194.84375 120.6875 C 195.15625 120.68751 195.46354 120.6406 195.75 120.5625 C 196.04947 120.47136 196.33853 120.38543 196.625 120.28125 C 196.92447 120.16407 197.21354 120.04685 197.5 119.96875 C 197.79947 119.87763 198.09374 119.84375 198.40625 119.84375 L 198.625 119.84375 C 198.70311 119.6875 198.80728 119.52605 198.9375 119.34375 C 199.06771 119.16147 199.12499 118.96355 199.125 118.78125 C 199.1249 118.67709 199.09635 118.60935 199.03125 118.53125 C 198.97916 118.45314 198.9036 118.3776 198.8125 118.3125 C 198.64322 118.2864 198.49479 118.25 198.3125 118.25 C 198.14322 118.25 197.95051 118.22135 197.78125 118.15625 C 197.55989 118.26042 197.36458 118.3359 197.15625 118.375 C 196.94791 118.401 196.72656 118.4245 196.53125 118.4375 C 196.33593 118.4506 196.14583 118.45575 195.9375 118.46875 C 195.75221 118.48118 195.572 118.51498 195.375 118.5625 L 195.375 118.40625 C 194.97134 118.13282 194.50259 118.00001 193.96875 118 C 193.55207 118.00001 193.12237 118.0339 192.71875 118.125 C 192.51317 118.17295 192.30292 118.19602 192.09375 118.21875 C 192.08531 118.08783 192.09374 117.96062 192.09375 117.8125 C 192.09375 117.64324 192.08075 117.48178 192.09375 117.3125 C 192.10675 117.13022 192.13025 116.9323 192.15625 116.75 C 192.41667 116.52866 192.72395 116.36719 193.0625 116.25 C 193.41406 116.1198 193.77864 115.99735 194.15625 115.90625 C 194.53385 115.80209 194.91666 115.69792 195.28125 115.59375 C 195.65885 115.48959 195.99999 115.37501 196.3125 115.21875 C 196.42968 115.25785 196.5625 115.28127 196.71875 115.28125 C 196.91406 115.28125 197.10416 115.2396 197.3125 115.1875 C 197.53385 115.12241 197.7552 115.04168 197.9375 114.9375 C 198.32812 114.9636 198.70311 114.9636 199.09375 114.9375 C 199.48436 114.9114 199.89062 114.90626 200.28125 114.90625 C 200.42447 114.90625 200.54426 114.9245 200.6875 114.9375 C 200.84374 114.9375 201.01301 114.9245 201.15625 114.9375 C 201.29946 114.87238 201.43748 114.8386 201.59375 114.8125 C 201.74998 114.77345 201.91926 114.72135 202.0625 114.65625 C 202.06249 114.55214 202.0963 114.49485 202.1875 114.46875 L 202.1875 114.375 C 202.1874 114.2448 202.15885 114.12235 202.09375 114.03125 C 202.04165 113.92709 202.013 113.83074 202 113.6875 C 201.84374 113.7136 201.66926 113.7136 201.5 113.6875 C 201.34374 113.6484 201.18749 113.62501 201.03125 113.625 C 200.88801 113.625 200.77343 113.6484 200.65625 113.6875 C 200.33072 113.62238 199.99478 113.55735 199.65625 113.53125 C 199.3177 113.50515 198.96353 113.50001 198.625 113.5 z M 167.1875 117.75 C 167.03124 117.81512 166.8906 117.93751 166.8125 118.09375 C 166.73437 118.23699 166.62499 118.34115 166.46875 118.40625 C 166.46875 118.41935 166.48175 118.4245 166.46875 118.4375 C 166.46875 118.50262 166.47915 118.56775 166.53125 118.59375 C 166.58335 118.60678 166.625 118.6224 166.625 118.6875 L 166.625 118.75 C 166.44271 118.95835 166.29166 119.19533 166.1875 119.46875 C 166.09635 119.72918 166.0156 120.00782 165.9375 120.28125 C 165.85937 120.54168 165.76041 120.78387 165.65625 121.03125 C 165.5651 121.27866 165.41405 121.50522 165.21875 121.6875 C 165.19275 121.81772 165.18225 121.95574 165.15625 122.125 C 165.14323 122.28131 165.02604 122.362 164.84375 122.375 C 164.79166 122.72657 164.71093 123.0573 164.59375 123.34375 C 164.48958 123.63022 164.36198 123.91407 164.21875 124.1875 L 163.8125 124.96875 C 163.70133 125.17088 163.59548 125.3915 163.5 125.625 C 163.14983 125.69771 162.79804 125.71876 162.4375 125.71875 L 162.34375 125.71875 C 162.12238 125.84897 161.89061 125.95315 161.65625 126.03125 C 161.43488 126.10934 161.1979 126.15626 160.9375 126.15625 L 160.78125 126.15625 C 160.74213 126.15625 160.70835 126.138 160.65625 126.125 C 160.51301 126.22917 160.31509 126.32815 160.09375 126.40625 C 159.8854 126.47145 159.71353 126.50001 159.53125 126.5 C 159.40103 126.5 159.2786 126.4896 159.1875 126.4375 C 159.10936 126.51558 159.01041 126.55465 158.90625 126.59375 C 158.80207 126.63282 158.7161 126.70315 158.625 126.78125 C 158.02603 126.96355 157.42446 127.12501 156.8125 127.28125 C 156.20051 127.42449 155.58072 127.58074 154.96875 127.75 C 154.36978 127.91928 153.77343 128.10417 153.1875 128.3125 C 152.60155 128.52084 152.02864 128.79428 151.46875 129.09375 C 151.46875 129.06775 151.4635 129.026 151.4375 129 C 151.4245 128.9739 151.401 128.96876 151.375 128.96875 C 151.349 128.96875 151.3385 128.987 151.3125 129 C 151.2865 129.0125 151.24475 129.00001 151.21875 129 C 151.19265 129 151.1641 128.9766 151.125 128.9375 C 151.11198 129.04167 151.0651 129.11715 151 129.15625 C 150.94791 129.19535 150.87235 129.224 150.78125 129.25 C 150.6901 129.2631 150.62235 129.2995 150.53125 129.3125 C 150.4401 129.3125 150.34635 129.3359 150.28125 129.375 C 150.17708 129.53126 150.09635 129.69271 150.03125 129.875 C 149.97915 130.04427 149.93749 130.22396 149.9375 130.40625 C 149.93749 130.75782 150.10156 131.04688 150.375 131.28125 C 150.47917 131.26815 150.5469 131.263 150.625 131.25 C 150.71614 131.2375 150.81515 131.21876 150.90625 131.21875 C 150.99739 131.21875 151.08333 131.24215 151.1875 131.28125 C 151.38281 131.13802 151.60937 131.0156 151.84375 130.9375 C 152.09114 130.85939 152.34634 130.78385 152.59375 130.71875 C 152.84114 130.64063 153.05989 130.55995 153.28125 130.46875 C 153.5026 130.37762 153.68749 130.2448 153.84375 130.0625 C 153.89582 130.1016 153.9844 130.12501 154.0625 130.125 C 154.20572 130.12501 154.33853 130.0781 154.46875 130 C 154.61197 129.90889 154.76822 129.875 154.9375 129.875 L 154.96875 129.875 C 155.07296 130.1875 155.13025 130.51042 155.15625 130.875 C 155.18235 131.23959 155.21874 131.58073 155.21875 131.90625 C 155.21875 132.10156 155.2005 132.3047 155.1875 132.5 C 155.18749 132.69532 155.18749 132.89844 155.1875 133.09375 C 155.30468 133.21094 155.3854 133.36198 155.4375 133.53125 C 155.4896 133.6875 155.53124 133.83073 155.53125 134 C 155.53125 134.09115 155.49475 134.21355 155.46875 134.34375 C 154.73958 134.48698 153.95312 134.61458 153.09375 134.71875 C 152.23437 134.80986 151.44791 134.84376 150.71875 134.84375 C 150.66666 134.84376 150.55729 134.79685 150.375 134.71875 C 150.19271 134.64066 150 134.625 149.84375 134.625 C 149.81775 134.625 149.7891 134.612 149.75 134.625 L 149.65625 134.625 C 149.42187 134.42969 149.14322 134.29685 148.84375 134.21875 C 148.54427 134.12761 148.33072 134.04167 148.1875 133.9375 C 148.10937 133.8724 148.0286 133.75521 147.9375 133.625 C 147.85937 133.49479 147.79685 133.375 147.71875 133.21875 L 147.46875 132.75 C 147.40364 132.60678 147.34635 132.47917 147.28125 132.375 C 147.32035 132.20573 147.34375 132.02084 147.34375 131.8125 C 147.34375 131.64324 147.32035 131.50001 147.28125 131.34375 C 147.41145 130.94011 147.50265 130.52865 147.59375 130.125 C 147.69791 129.72136 147.80208 129.32293 147.90625 128.90625 C 148.14062 128.8021 148.34374 128.63283 148.5 128.4375 C 148.65624 128.2422 148.80729 128.05209 148.9375 127.84375 C 149.08073 127.6224 149.21875 127.40105 149.375 127.21875 C 149.54427 127.02344 149.7526 126.88543 150 126.78125 C 150.026 126.71615 150.06775 126.63543 150.09375 126.53125 C 150.13281 126.4271 150.19015 126.37501 150.28125 126.375 C 150.34637 126.375 150.38015 126.38025 150.40625 126.40625 C 150.44531 126.41975 150.4974 126.43751 150.5625 126.4375 C 150.536 126.33334 150.5495 126.23435 150.5625 126.15625 C 150.5885 126.06511 150.599 125.97918 150.625 125.875 C 150.85937 125.82293 151.10417 125.7422 151.3125 125.625 C 151.52083 125.49481 151.71093 125.3672 151.90625 125.25 C 152.11458 125.1198 152.32291 124.99745 152.53125 124.90625 C 152.7526 124.8021 152.98958 124.75001 153.25 124.75 C 153.4453 124.75 153.64323 124.79165 153.8125 124.84375 C 154.08593 124.68752 154.2474 124.44272 154.3125 124.15625 C 154.3775 123.85679 154.40624 123.56773 154.40625 123.28125 C 154.35417 123.29425 154.30725 123.29425 154.28125 123.28125 C 154.26815 123.25525 154.263 123.24485 154.25 123.21875 L 154.21875 123.125 C 154.21875 123.0859 154.23175 123.026 154.21875 123 C 154.11458 122.85678 153.95833 122.77085 153.75 122.71875 C 153.55468 122.65365 153.36197 122.62502 153.21875 122.625 C 152.8802 122.62502 152.56249 122.6589 152.25 122.75 C 151.95051 122.84118 151.65624 122.9115 151.34375 122.9375 C 151.20051 123.13283 151.02083 123.30731 150.8125 123.4375 C 150.60417 123.5547 150.39062 123.64065 150.15625 123.71875 C 149.97395 124.00522 149.74218 124.26043 149.46875 124.46875 C 149.20833 124.6771 148.94791 124.87241 148.6875 125.09375 C 148.62239 125.27605 148.5052 125.4323 148.375 125.5625 C 148.25781 125.69272 148.16146 125.83855 148.03125 125.96875 C 147.91406 126.08594 147.79167 126.21876 147.6875 126.375 C 147.58329 126.51824 147.526 126.6849 147.5 126.90625 C 147.10937 127.20574 146.76041 127.58334 146.5 128 C 146.2526 128.40365 146.05209 128.8073 145.84375 129.25 C 145.80467 129.32813 145.75785 129.4271 145.71875 129.53125 C 145.66666 129.62241 145.61975 129.70315 145.59375 129.78125 C 145.56765 129.84636 145.5625 129.91665 145.5625 129.96875 C 145.5625 130.02084 145.54425 130.09115 145.53125 130.15625 C 145.49218 130.37761 145.43485 130.58595 145.34375 130.78125 C 145.25261 130.97657 145.14844 131.16146 145.03125 131.34375 C 145.16146 131.4349 145.2604 131.50265 145.3125 131.59375 C 145.22138 131.6849 145.15625 131.85417 145.15625 132.0625 L 145.3125 132.34375 C 145.2474 133.03386 145.38542 133.61198 145.75 134.09375 C 146.1276 134.57552 146.57812 134.97397 147.125 135.3125 C 147.16402 135.40365 147.22915 135.47915 147.28125 135.53125 C 147.33335 135.57031 147.34375 135.64584 147.34375 135.75 C 147.82552 135.85417 148.29427 135.98698 148.75 136.15625 C 149.21875 136.3125 149.72396 136.44015 150.21875 136.53125 C 150.28385 136.49215 150.34115 136.46875 150.40625 136.46875 C 150.47135 136.45625 150.52865 136.4375 150.59375 136.4375 C 150.68489 136.4375 150.77083 136.474 150.875 136.5 C 150.99218 136.5131 151.0964 136.54165 151.1875 136.59375 C 151.1744 136.54165 151.19275 136.513 151.21875 136.5 C 151.25784 136.4739 151.30465 136.4375 151.34375 136.4375 C 151.39582 136.425 151.4479 136.4375 151.5 136.4375 C 151.55208 136.4375 151.599 136.43225 151.625 136.40625 C 152.32812 136.40625 153.01562 136.3646 153.71875 136.3125 C 154.43489 136.2474 155.13541 136.13802 155.8125 135.96875 C 156.00781 136.1901 156.17447 136.40886 156.34375 136.65625 C 156.51301 136.89063 156.70572 137.14062 156.875 137.375 C 157.05728 137.59635 157.24217 137.80468 157.4375 138 C 157.64582 138.20833 157.86457 138.375 158.125 138.53125 C 158.30728 138.45316 158.44005 138.4375 158.53125 138.4375 C 158.62238 138.4375 158.77342 138.41925 158.96875 138.40625 C 159.08592 138.26302 159.17965 138.08854 159.21875 137.90625 C 159.25785 137.73698 159.28124 137.55729 159.28125 137.375 C 159.28125 137.24479 159.263 137.13021 159.25 137 C 159.237 136.85677 159.2135 136.72395 159.1875 136.59375 C 158.8229 136.52864 158.5677 136.35417 158.4375 136.09375 C 158.3203 135.83334 158.23435 135.54948 158.15625 135.25 C 158.09114 134.9375 157.99217 134.66667 157.875 134.40625 C 157.77082 134.13281 157.55728 133.9531 157.21875 133.875 C 157.24485 133.79688 157.24998 133.72135 157.25 133.65625 C 157.24998 133.46094 157.21093 133.27605 157.09375 133.09375 C 156.97661 132.89844 156.901 132.69011 156.875 132.46875 L 156.875 132.375 C 156.87499 131.90625 156.80985 131.45573 156.71875 131 C 156.62763 130.53126 156.59374 130.06251 156.59375 129.59375 C 156.65884 129.54167 156.70575 129.4896 156.71875 129.4375 C 156.74478 129.37238 156.7969 129.3385 156.875 129.3125 C 156.95311 129.2864 157.02865 129.25001 157.09375 129.25 C 157.15885 129.25 157.21615 129.24475 157.28125 129.21875 C 157.42446 129.15366 157.55728 129.09635 157.6875 129.03125 C 157.8177 128.95316 157.95572 128.90626 158.125 128.90625 C 158.20311 128.90625 158.30207 128.9115 158.40625 128.9375 C 158.60155 128.74219 158.81509 128.62235 159.0625 128.53125 C 159.32291 128.44011 159.58332 128.3646 159.84375 128.3125 C 160.11718 128.2474 160.37759 128.1901 160.625 128.125 C 160.87238 128.04689 161.11718 127.90626 161.3125 127.75 C 161.36457 127.7635 161.4453 127.78126 161.5625 127.78125 C 161.77082 127.78125 161.97915 127.7396 162.1875 127.6875 L 162.25 127.6875 C 162.18004 127.77957 162.08201 127.85002 162 127.9375 L 162 128.34375 C 161.72656 128.59115 161.47136 128.875 161.25 129.1875 L 160.59375 130.125 C 160.38542 130.42448 160.16667 130.69532 159.90625 130.96875 C 159.64584 131.24219 159.32031 131.48698 158.96875 131.65625 C 158.95568 131.77344 158.9844 131.85415 159.0625 131.90625 C 159.14059 131.94531 159.1875 132.00782 159.1875 132.125 C 159.04427 132.17709 158.92185 132.25781 158.84375 132.375 C 158.76557 132.47917 158.7266 132.60678 158.6875 132.75 C 158.6485 132.88021 158.60675 133.03125 158.59375 133.1875 C 158.56765 133.33073 158.5625 133.46354 158.5625 133.59375 C 158.70573 133.99739 158.96615 134.21875 159.34375 134.21875 C 159.52604 134.21875 159.72916 134.1536 159.9375 134.0625 C 160.14583 133.97135 160.32552 133.86719 160.46875 133.75 C 160.44275 133.58073 160.46615 133.4531 160.53125 133.375 C 160.67448 133.3099 160.7839 133.24218 160.875 133.125 C 160.97916 133.00781 161.06515 132.88021 161.15625 132.75 C 161.24739 132.6198 161.3464 132.49219 161.4375 132.375 C 161.52865 132.25781 161.63802 132.1406 161.78125 132.0625 C 161.78124 131.88021 161.83333 131.74735 161.9375 131.65625 C 162.04171 131.56511 162.0989 131.4375 162.125 131.28125 C 162.20308 131.29435 162.2734 131.30725 162.3125 131.28125 C 162.36459 131.24216 162.4115 131.19535 162.4375 131.15625 C 162.4635 131.10417 162.474 131.0521 162.5 131 C 162.52609 130.93488 162.5729 130.901 162.625 130.875 C 162.70312 130.875 162.77865 130.8516 162.84375 130.8125 C 163.10417 130.8776 163.34635 130.90625 163.59375 130.90625 C 163.77604 130.90625 163.95572 130.888 164.125 130.875 C 164.30728 130.8625 164.50521 130.87501 164.6875 130.875 L 164.84375 130.875 C 164.93494 130.875 164.98175 130.84635 164.96875 130.78125 C 164.96874 130.71615 165.01565 130.65625 165.09375 130.65625 C 165.19791 130.70835 165.2969 130.75 165.375 130.75 C 165.50521 130.75 165.61458 130.72135 165.71875 130.65625 C 165.82291 130.57813 165.93229 130.52085 166.0625 130.46875 C 166.15364 130.49485 166.2344 130.5 166.3125 130.5 L 166.59375 130.5 C 166.91927 130.5 167.23697 130.47135 167.5625 130.40625 C 167.88801 130.34115 168.20051 130.24735 168.5 130.15625 C 168.57811 130.19531 168.65365 130.2474 168.71875 130.3125 C 168.78385 130.36462 168.84115 130.42965 168.90625 130.46875 C 168.99739 130.27348 169.17187 130.15625 169.40625 130.15625 L 169.5625 130.15625 C 169.71874 130.3125 169.85155 130.51042 169.96875 130.71875 C 170.08593 130.92709 170.20832 131.13542 170.3125 131.34375 C 170.41666 131.55209 170.52082 131.74219 170.625 131.9375 C 170.74218 132.11979 170.87499 132.27604 171.03125 132.40625 C 171.14842 132.51044 171.22915 132.55725 171.28125 132.53125 C 171.34635 132.50515 171.4088 132.49215 171.5 132.53125 C 171.56512 132.55735 171.63015 132.61715 171.65625 132.65625 C 171.69525 132.69533 171.724 132.7109 171.75 132.75 C 171.78909 132.776 171.8359 132.81775 171.875 132.84375 C 171.92707 132.86985 171.98957 132.875 172.09375 132.875 C 172.17186 132.875 172.26565 132.85675 172.34375 132.84375 C 172.43488 132.83125 172.50255 132.84375 172.59375 132.84375 C 172.65884 132.84375 172.7474 132.83075 172.8125 132.84375 C 172.87759 132.85675 172.9349 132.88025 173 132.90625 C 173.0651 132.88021 173.09374 132.84635 173.09375 132.78125 C 173.09375 132.71615 173.1224 132.6875 173.1875 132.6875 C 173.25259 132.6875 173.3229 132.6745 173.375 132.6875 L 173.5625 132.6875 C 173.70572 132.6875 173.86197 132.7005 174.03125 132.6875 C 174.21353 132.66146 174.39322 132.59635 174.5625 132.53125 C 174.73176 132.46615 174.8828 132.38542 175 132.28125 C 175.13019 132.16407 175.2109 132.02604 175.25 131.84375 C 175.14582 131.73958 175.0651 131.61719 175 131.5 C 174.93488 131.3698 174.85416 131.24219 174.75 131.125 C 174.69791 131.1641 174.58592 131.18751 174.46875 131.1875 C 174.31248 131.1875 174.17446 131.15885 174.03125 131.09375 C 173.90103 131.01566 173.74999 130.96875 173.59375 130.96875 C 173.45051 130.96875 173.31769 131.02084 173.1875 131.125 C 172.99217 130.99479 172.80728 130.86199 172.625 130.71875 C 172.45572 130.56251 172.32291 130.37761 172.21875 130.15625 C 172.5052 130.0521 172.79426 130 173.09375 130 C 173.1979 130 173.29165 130.01825 173.34375 130.03125 C 173.29165 129.95313 173.24999 129.8776 173.25 129.8125 C 173.24999 129.69531 173.30207 129.5911 173.40625 129.5 C 173.5104 129.40885 173.56249 129.28126 173.5625 129.125 C 173.5625 129.04688 173.5521 128.94793 173.5 128.84375 C 173.42187 128.81765 173.3281 128.81251 173.25 128.8125 L 173.0625 128.8125 C 172.9453 128.8125 172.79426 128.83075 172.625 128.84375 C 172.46874 128.84375 172.29426 128.8255 172.125 128.8125 C 171.95572 128.78651 171.79947 128.7396 171.65625 128.6875 C 171.52603 128.63543 171.4401 128.56771 171.375 128.4375 C 171.1927 128.07292 171.05985 127.66146 170.96875 127.21875 C 170.89062 126.76303 170.79165 126.32813 170.6875 125.9375 C 170.64838 125.78126 170.6146 125.62501 170.5625 125.46875 C 170.52342 125.31251 170.47135 125.17449 170.40625 125.03125 L 170.25 124.71875 C 170.17189 124.54949 170.1615 124.34637 170.1875 124.125 C 170.2135 123.89064 170.2135 123.6823 170.1875 123.5 C 170.14843 123.26564 170.07291 123.03386 169.96875 122.8125 C 169.86457 122.59115 169.7891 122.37241 169.75 122.125 C 169.68488 121.70835 169.59895 121.29688 169.46875 120.90625 C 169.35155 120.50261 169.22915 120.10418 169.125 119.6875 C 169.05988 119.44011 169.026 119.18491 169 118.9375 C 168.98697 118.6771 168.88801 118.46355 168.71875 118.28125 C 168.3802 118.25515 168.11457 118.19535 167.90625 118.15625 C 167.69791 118.10418 167.46093 117.97137 167.1875 117.75 z M 167.09375 121.8125 C 167.24999 121.91668 167.3724 122.04949 167.4375 122.21875 C 167.51558 122.37501 167.55465 122.5547 167.59375 122.75 C 167.64582 122.93231 167.6979 123.1172 167.75 123.3125 C 167.80207 123.4948 167.91406 123.65105 168.03125 123.78125 L 168.03125 123.84375 C 168.03125 123.90887 167.9896 123.9844 167.9375 124.0625 C 168.10676 124.47917 168.23957 124.90105 168.34375 125.34375 C 168.46093 125.78647 168.56505 126.24479 168.65625 126.6875 C 168.69525 126.88281 168.737 127.07293 168.75 127.28125 C 168.77599 127.48959 168.79165 127.69272 168.84375 127.875 C 168.88277 128.01824 168.9479 128.14583 169 128.25 C 169.06512 128.34115 169.099 128.4974 169.125 128.71875 C 169.0729 128.77083 169.04425 128.84115 169.03125 128.90625 C 169.01822 128.95833 168.97135 129.0104 168.90625 129.0625 C 168.77604 129.0755 168.6901 129.0521 168.625 129 C 168.55989 128.93488 168.46093 128.86985 168.34375 128.84375 C 168.20051 128.88285 168.06249 128.9115 167.90625 128.9375 C 167.76301 128.9636 167.59374 129.00001 167.4375 129 C 167.13801 129.00001 166.88541 128.93495 166.625 128.84375 C 166.49479 128.93494 166.30208 129.00525 166.09375 129.03125 C 165.89843 129.04435 165.73176 129.0729 165.5625 129.125 C 165.45833 129.02079 165.34896 128.9636 165.21875 128.9375 C 165.08854 128.9114 164.92447 128.90625 164.78125 128.90625 L 164.34375 128.90625 C 164.20052 128.89323 164.08594 128.84635 163.96875 128.78125 C 163.96875 128.59896 163.97915 128.40105 164.03125 128.21875 C 164.09635 128.03647 164.20573 127.89844 164.375 127.78125 C 164.43359 127.57943 164.51562 127.37956 164.59375 127.1875 C 164.70689 127.17123 164.82433 127.12501 164.9375 127.125 C 164.9765 127.125 164.987 127.1484 165 127.1875 C 165.026 127.2136 165.0495 127.24215 165.0625 127.28125 C 165.0755 127.30735 165.08075 127.3359 165.09375 127.375 C 165.11974 127.4011 165.16665 127.43751 165.21875 127.4375 L 165.25 127.40625 C 165.27602 127.27605 165.3463 127.1771 165.4375 127.125 C 165.54165 127.05988 165.66404 127.026 165.78125 127 C 165.89842 126.9739 165.98957 126.94535 166.09375 126.90625 C 166.21092 126.85417 166.30465 126.77345 166.34375 126.65625 C 166.30465 126.56511 166.263 126.48435 166.25 126.40625 C 166.24998 126.31512 166.24998 126.19793 166.25 126.09375 L 166.25 125.875 C 166.01169 125.71357 165.75244 125.59738 165.46875 125.53125 C 165.47317 125.52351 165.46433 125.50774 165.46875 125.5 C 165.6901 125.13543 165.89843 124.77084 166.09375 124.40625 C 166.28906 124.02866 166.42708 123.63543 166.53125 123.21875 C 166.66145 123.14064 166.7604 123.03647 166.8125 122.90625 C 166.87759 122.76304 166.96353 122.65885 167.09375 122.59375 C 167.09375 122.50262 167.0885 122.42185 167.0625 122.34375 C 167.05 122.26563 167.03125 122.18495 167.03125 122.09375 C 167.03125 121.9896 167.05465 121.8906 167.09375 121.8125 z M 131.8125 122.03125 C 131.43487 122.30471 131.04165 122.51825 130.625 122.6875 C 130.22134 122.84377 129.763 122.9479 129.28125 123 C 129.28115 123.09117 129.2526 123.1485 129.1875 123.1875 C 129.1354 123.22659 129.0651 123.27865 129 123.34375 C 128.974 123.33075 128.9635 123.3255 128.9375 123.3125 C 128.9245 123.3 128.901 123.31252 128.875 123.3125 C 128.78384 123.31252 128.7031 123.32815 128.625 123.40625 C 128.54686 123.4714 128.4531 123.5235 128.375 123.5625 C 128.30988 123.5105 128.22915 123.50002 128.125 123.5 C 128.0078 123.5 127.89842 123.5104 127.78125 123.5625 C 127.66405 123.6146 127.55467 123.6849 127.4375 123.75 C 127.32029 123.81512 127.1927 123.8854 127.0625 123.9375 C 126.9453 123.9896 126.83592 124.00002 126.71875 124 C 126.62759 124 126.5521 123.98175 126.5 123.96875 C 126.4479 124.03388 126.41925 124.12765 126.40625 124.21875 C 126.40624 124.30991 126.35935 124.36725 126.28125 124.40625 C 126.28125 124.38015 126.263 124.3516 126.25 124.3125 C 126.237 124.2735 126.2266 124.25002 126.1875 124.25 C 126.1614 124.25 126.15624 124.26825 126.15625 124.28125 C 125.77864 124.46356 125.40623 124.60679 125.09375 124.75 C 124.79426 124.88023 124.4479 125.02085 124.03125 125.125 C 124.04425 125.1771 124.04425 125.21615 124.03125 125.28125 C 124.01822 125.34645 123.9661 125.37502 123.875 125.375 C 123.8489 125.37502 123.82035 125.37502 123.78125 125.375 C 123.74225 125.3625 123.7135 125.37502 123.6875 125.375 C 123.53124 125.375 123.36197 125.3854 123.21875 125.4375 C 123.08853 125.4896 122.99218 125.5599 122.875 125.625 C 122.75781 125.6771 122.6302 125.72915 122.5 125.78125 C 122.3828 125.83335 122.25519 125.84377 122.125 125.84375 C 122.03384 125.84375 121.9531 125.8516 121.875 125.8125 C 121.71874 125.92971 121.52603 126.01565 121.34375 126.09375 C 121.17447 126.15887 121.02604 126.21615 120.84375 126.28125 C 120.66145 126.34637 120.48176 126.4219 120.3125 126.5 C 120.14322 126.56513 119.98697 126.65106 119.84375 126.78125 L 119.75 126.78125 C 119.69788 126.78125 119.6641 126.7761 119.625 126.75 C 119.5989 126.7239 119.57035 126.71877 119.53125 126.71875 L 119.46875 126.71875 C 119.40364 126.90106 119.29426 127.0521 119.125 127.15625 C 118.96874 127.2604 118.78906 127.31251 118.59375 127.3125 C 118.47656 127.3125 118.34895 127.28385 118.21875 127.21875 C 118.24475 127.01043 118.24475 126.80731 118.21875 126.625 C 118.19275 126.42971 118.18225 126.20835 118.15625 126 C 118.22135 125.89585 118.2839 125.8151 118.375 125.75 C 118.46618 125.68491 118.5365 125.58074 118.5625 125.4375 C 118.47135 125.2422 118.38541 125.07033 118.28125 124.875 C 118.1901 124.67971 118.0677 124.50002 117.9375 124.34375 C 117.80729 124.18752 117.65104 124.05995 117.46875 123.96875 C 117.29947 123.8646 117.09114 123.81252 116.84375 123.8125 C 116.67447 123.8125 116.55985 123.8359 116.46875 123.875 C 116.3776 123.91411 116.28385 123.9479 116.21875 124 C 116.16666 124.05211 116.09635 124.1224 116.03125 124.1875 C 115.96614 124.2396 115.89843 124.29165 115.78125 124.34375 C 115.80725 124.48699 115.83075 124.62502 115.84375 124.78125 C 115.86985 124.9245 115.87499 125.06252 115.875 125.21875 C 115.875 125.362 115.8516 125.52606 115.8125 125.65625 C 115.78646 125.78648 115.7161 125.88283 115.625 126 C 115.6511 126.07815 115.6875 126.1719 115.6875 126.25 C 115.7 126.32814 115.68749 126.39065 115.6875 126.46875 C 115.68749 126.84637 115.63541 127.24741 115.53125 127.625 C 115.42703 128.00262 115.36975 128.37241 115.34375 128.75 C 115.1224 128.77606 114.93229 128.83335 114.75 128.9375 C 114.56771 129.04168 114.36979 129.16929 114.1875 129.3125 C 114.01823 129.44273 113.85677 129.58856 113.6875 129.71875 C 113.51822 129.84897 113.33333 129.95315 113.125 130.03125 C 113.02085 130.27866 112.96875 130.50261 112.96875 130.75 C 112.96875 131.16668 113.15364 131.54428 113.53125 131.84375 L 113.5625 131.84375 C 113.82291 131.84376 114.0651 131.79685 114.3125 131.71875 C 114.55989 131.64066 114.83333 131.59376 115.09375 131.59375 L 115.21875 131.59375 C 115.11458 132.07553 115.02085 132.56772 114.96875 133.0625 L 114.8125 134.53125 C 114.76041 135.01303 114.68485 135.48699 114.59375 135.96875 C 114.51562 136.43751 114.38802 136.91928 114.21875 137.375 C 113.88021 137.41407 113.58073 137.54688 113.28125 137.78125 C 112.98177 138.00261 112.8125 138.27866 112.8125 138.65625 C 112.8125 138.76043 112.8359 138.88802 112.875 139.03125 C 112.91406 139.17448 112.96615 139.31515 113.03125 139.40625 C 113.10937 139.51042 113.24219 139.59115 113.4375 139.65625 C 113.64583 139.70833 113.83854 139.77084 113.96875 139.875 C 113.85156 140.46094 113.7526 141.03907 113.6875 141.625 C 113.62239 142.19792 113.5287 142.80729 113.4375 143.40625 C 113.4245 143.45833 113.401 143.54428 113.375 143.6875 C 113.3489 143.83073 113.32035 143.96875 113.28125 144.125 C 113.25525 144.28125 113.24475 144.43229 113.21875 144.5625 C 113.20525 144.67964 113.18749 144.75525 113.1875 144.78125 C 113.1875 144.88542 113.2109 144.9609 113.25 145 C 113.3021 145.05208 113.34375 145.12765 113.34375 145.21875 C 113.14839 145.34896 113.03124 145.55208 113.03125 145.8125 C 113.03125 145.94271 113.0365 146.03906 113.0625 146.15625 C 113.10159 146.28646 113.1484 146.42708 113.1875 146.53125 C 113.14841 146.58333 113.1016 146.6354 113.0625 146.6875 C 113.03641 146.75261 113.02085 146.7865 112.96875 146.8125 C 113.03385 147.11198 113.0729 147.40625 113.125 147.71875 C 113.19015 148.03125 113.24215 148.35677 113.28125 148.65625 C 113.30735 148.79948 113.34375 148.9375 113.34375 149.09375 C 113.35675 149.26302 113.349 149.43229 113.375 149.5625 C 113.40099 149.6407 113.4479 149.66925 113.5 149.65625 C 113.565 149.64322 113.59375 149.6589 113.59375 149.75 C 113.59375 149.80208 113.5885 149.85415 113.5625 149.90625 C 113.55 149.97135 113.53125 150.0599 113.53125 150.125 C 113.53125 150.38541 113.60156 150.6328 113.71875 150.90625 C 113.84896 151.1927 113.95315 151.48958 114.03125 151.75 L 114.4375 152.15625 C 114.59374 152.29947 114.76822 152.41406 114.9375 152.53125 C 115.11979 152.66145 115.28646 152.76565 115.46875 152.84375 C 115.66406 152.92184 115.88541 152.96874 116.09375 152.96875 C 116.39323 152.96874 116.68228 152.92185 116.96875 152.84375 C 117.2552 152.76562 117.53906 152.6901 117.8125 152.625 C 117.89062 152.52082 117.9479 152.4401 118 152.375 C 118.0651 152.3098 118.16927 152.28125 118.3125 152.28125 L 118.375 152.28125 C 118.45312 152.125 118.56249 152.0156 118.71875 151.9375 C 118.87499 151.85937 119.04947 151.8021 119.21875 151.75 C 119.46614 151.47655 119.71354 151.21614 120 150.96875 C 120.28645 150.73437 120.58853 150.48437 120.875 150.25 C 121.16145 150.01562 121.4453 149.79687 121.71875 149.5625 C 121.99218 149.32812 122.25259 149.05468 122.5 148.78125 C 122.63024 148.80725 122.70575 148.78385 122.71875 148.71875 C 122.74479 148.65365 122.7838 148.625 122.875 148.625 L 122.90625 148.65625 C 123.14061 148.38281 123.37239 148.10937 123.59375 147.875 C 123.82811 147.64062 124.11717 147.49218 124.46875 147.375 C 124.49483 147.29687 124.54165 147.22135 124.59375 147.15625 C 124.64582 147.09114 124.6849 147.0026 124.75 146.9375 C 124.97134 146.80729 125.20311 146.71093 125.4375 146.59375 C 125.68488 146.47656 125.92707 146.35416 126.1875 146.25 C 126.26561 146.08073 126.36978 145.92969 126.5 145.8125 C 126.63019 145.70833 126.79426 145.60935 126.9375 145.53125 C 127.08072 145.45313 127.21874 145.3906 127.375 145.3125 C 127.53124 145.24739 127.66926 145.1536 127.8125 145.0625 C 127.86457 145.02344 127.9349 144.97135 128 144.90625 L 128.1875 144.71875 C 128.25258 144.6536 128.3229 144.6016 128.375 144.5625 C 128.44008 144.5104 128.4974 144.5 128.5625 144.5 C 128.5886 144.5 128.59374 144.487 128.59375 144.5 L 128.65625 144.5 C 128.60415 144.22656 128.5755 143.96094 128.5625 143.6875 C 128.54946 143.40105 128.46874 143.1224 128.3125 142.875 C 128.2604 142.9011 128.1901 142.9245 128.125 142.9375 L 127.96875 142.9375 C 127.7604 142.9375 127.55207 142.93225 127.34375 142.90625 L 126.71875 142.84375 C 126.67967 142.98698 126.6276 143.11979 126.5625 143.25 C 126.49738 143.36718 126.42185 143.47656 126.34375 143.59375 C 126.2005 143.56775 126.1016 143.59115 126.0625 143.65625 C 126.02342 143.72145 125.9479 143.75 125.84375 143.75 C 125.81765 143.75 125.79425 143.73175 125.78125 143.71875 C 125.46874 144.07031 125.12759 144.39583 124.75 144.65625 C 124.37238 144.92968 124.0026 145.19531 123.625 145.46875 C 123.5078 145.55989 123.3802 145.6589 123.25 145.75 C 123.1328 145.85416 123.0104 145.95833 122.90625 146.0625 L 122.625 146.3125 C 122.57291 146.3646 122.51041 146.40625 122.40625 146.40625 C 122.36715 146.40625 122.30725 146.388 122.28125 146.375 C 122.22915 146.58333 122.14322 146.73958 122 146.84375 C 121.85676 146.94791 121.75785 147.11718 121.71875 147.3125 C 121.56249 147.33853 121.4479 147.3724 121.34375 147.4375 C 121.23957 147.51563 121.1406 147.61458 121.0625 147.71875 C 120.98437 147.82292 120.90885 147.91406 120.84375 148.03125 C 120.77863 148.14844 120.7161 148.27083 120.625 148.375 L 120.25 148.375 C 119.91145 148.60938 119.58072 148.88801 119.28125 149.1875 C 118.99478 149.49999 118.68749 149.77083 118.375 150.03125 C 118.06249 150.30468 117.73958 150.53646 117.375 150.71875 C 117.02344 150.90109 116.625 151 116.15625 151 C 116.07813 151 115.98435 150.98175 115.90625 150.96875 C 115.84114 150.96875 115.78385 150.98175 115.71875 150.96875 C 115.64062 150.69531 115.50781 150.4401 115.3125 150.21875 C 115.13021 150.01041 115.0026 149.77343 114.9375 149.5 C 114.87238 149.27864 114.80725 149.02864 114.78125 148.78125 C 114.75525 148.53385 114.74475 148.27865 114.71875 148.03125 C 114.69265 147.79687 114.6641 147.57812 114.625 147.34375 C 114.58593 147.10937 114.5156 146.89583 114.4375 146.6875 C 114.59374 146.1276 114.6979 145.48958 114.75 144.8125 C 114.80208 144.14843 114.85415 143.48958 114.90625 142.8125 C 114.97135 142.13542 115.08854 141.46876 115.21875 140.84375 C 115.34896 140.21876 115.5677 139.66927 115.90625 139.1875 C 116.07552 139.14844 116.23177 139.0912 116.375 139 L 116.8125 138.71875 C 116.95572 138.62761 117.10677 138.5651 117.25 138.5 C 117.39323 138.42191 117.53645 138.37501 117.71875 138.375 C 117.79686 138.375 117.89583 138.38025 118 138.40625 C 118.11718 138.21094 118.30208 138.09635 118.5625 138.03125 C 118.83593 137.95316 119.07291 137.90626 119.28125 137.90625 L 119.40625 137.90625 C 119.45837 137.90625 119.49215 137.9245 119.53125 137.9375 C 119.59635 137.80729 119.6953 137.70835 119.8125 137.65625 C 119.9427 137.60416 120.08854 137.55725 120.21875 137.53125 C 120.36198 137.49223 120.47655 137.45835 120.59375 137.40625 C 120.72395 137.35418 120.8099 137.27344 120.875 137.15625 C 120.91405 137.16875 120.98958 137.15625 121.09375 137.15625 C 121.35416 137.15625 121.60415 137.11719 121.8125 137 C 122.02082 136.88281 122.21613 136.81251 122.4375 136.8125 C 122.52863 136.8125 122.64065 136.8359 122.71875 136.875 C 122.75781 136.78386 122.7969 136.7266 122.875 136.6875 C 122.95311 136.63541 123.0338 136.5885 123.125 136.5625 L 123.4375 136.46875 C 123.54166 136.4297 123.6224 136.3776 123.6875 136.3125 C 124.13019 136.27345 124.55207 136.17449 124.96875 136.03125 C 125.39842 135.87501 125.81509 135.70053 126.21875 135.53125 C 126.6354 135.36199 127.05207 135.22397 127.46875 135.09375 C 127.89842 134.96354 128.35676 134.90626 128.8125 134.90625 C 128.8256 134.81512 128.85415 134.7396 128.90625 134.6875 C 128.95832 134.63542 128.9974 134.58335 129.0625 134.53125 C 129.12759 134.47917 129.1979 134.4271 129.25 134.375 C 129.30209 134.3099 129.3489 134.22918 129.375 134.125 C 129.29686 133.9948 129.20835 133.86199 129.15625 133.71875 C 129.10415 133.57553 129.04685 133.44272 128.96875 133.3125 C 128.8906 133.1823 128.80467 133.05995 128.6875 132.96875 C 128.58331 132.8776 128.43227 132.8255 128.25 132.8125 C 128.1328 132.91668 127.99999 132.97915 127.84375 133.03125 C 127.70051 133.07035 127.56249 133.13025 127.40625 133.15625 C 127.24999 133.18235 127.09374 133.2109 126.9375 133.25 C 126.78124 133.28907 126.63019 133.3464 126.5 133.4375 C 126.43488 133.43751 126.3646 133.43751 126.3125 133.4375 C 126.27338 133.425 126.2396 133.40626 126.1875 133.40625 C 126.08332 133.40625 125.9661 133.42965 125.875 133.46875 C 125.78384 133.4948 125.72135 133.56515 125.65625 133.65625 C 125.39582 133.63022 125.11197 133.67709 124.8125 133.78125 C 124.51301 133.88543 124.25259 133.9948 124.03125 134.125 C 123.95311 134.0859 123.86718 134.06251 123.75 134.0625 C 123.59374 134.06251 123.43749 134.0964 123.28125 134.1875 C 123.12499 134.27865 122.97395 134.39584 122.84375 134.5 C 122.41406 134.56511 121.97916 134.65106 121.5625 134.78125 C 121.15885 134.91147 120.76561 135.04949 120.375 135.21875 C 120.23176 135.28387 120.09374 135.3594 119.9375 135.4375 C 119.78124 135.50265 119.61197 135.55465 119.46875 135.59375 C 119.28645 135.65887 119.10156 135.724 118.90625 135.75 C 118.72395 135.77605 118.55728 135.8099 118.375 135.875 C 118.01041 135.97918 117.64582 136.08855 117.28125 136.21875 C 116.92968 136.34896 116.5651 136.48959 116.1875 136.59375 C 116.1875 136.50261 116.16925 136.3906 116.15625 136.3125 C 116.15624 136.22137 116.15624 136.13543 116.15625 136.03125 C 116.15625 135.75783 116.17965 135.48699 116.21875 135.1875 C 116.25781 134.88803 116.33853 134.59115 116.46875 134.34375 L 116.46875 133.4375 C 116.70312 132.94272 116.87765 132.44012 116.96875 131.90625 C 117.05989 131.35939 117.16926 130.80209 117.3125 130.28125 C 117.93749 129.90366 118.60416 129.60418 119.28125 129.34375 C 119.95833 129.08334 120.61718 128.80471 121.28125 128.53125 C 121.61979 128.38804 121.93749 128.25001 122.25 128.09375 C 122.56248 127.93751 122.87498 127.76824 123.1875 127.625 C 123.2005 127.6125 123.24215 127.62501 123.28125 127.625 C 123.33334 127.625 123.3489 127.63025 123.375 127.65625 C 123.40099 127.68235 123.4479 127.68752 123.5 127.6875 L 123.53125 127.6875 C 123.59634 127.59637 123.70833 127.52085 123.8125 127.46875 C 123.91666 127.41663 124.0078 127.38285 124.125 127.34375 C 124.24217 127.29168 124.36457 127.2396 124.46875 127.1875 C 124.58592 127.13543 124.6719 127.0781 124.75 127 C 125.04946 126.96095 125.33332 126.86721 125.59375 126.75 C 125.85415 126.63283 126.09634 126.50522 126.34375 126.375 C 126.60415 126.24481 126.86457 126.11721 127.125 126 C 127.3854 125.88286 127.68228 125.8386 127.96875 125.8125 C 128.0729 125.66929 128.20571 125.5651 128.375 125.5 C 128.54425 125.42189 128.71092 125.33335 128.90625 125.28125 C 129.10155 125.22918 129.28644 125.1901 129.46875 125.125 C 129.65102 125.05991 129.82029 124.94272 129.9375 124.8125 C 130.11977 124.7995 130.29946 124.78385 130.46875 124.71875 C 130.638 124.65367 130.78123 124.5781 130.9375 124.5 C 131.09373 124.42189 131.24998 124.34635 131.40625 124.28125 C 131.5755 124.2162 131.75518 124.1641 131.9375 124.125 C 132.02862 124.19009 132.13279 124.237 132.25 124.25 C 132.36716 124.2631 132.48956 124.26825 132.59375 124.28125 C 132.58025 124.25523 132.56247 124.2031 132.5625 124.125 C 132.5625 124.05991 132.5859 124.013 132.625 124 C 132.67706 123.9739 132.7474 123.96877 132.8125 123.96875 C 132.87758 123.96875 132.95831 123.95575 133.0625 123.96875 C 133.17966 123.98185 133.24215 123.97135 133.28125 123.90625 C 133.29375 123.8021 133.31248 123.67971 133.3125 123.5625 C 133.325 123.44533 133.34373 123.33596 133.34375 123.21875 C 133.34375 123.15367 133.3255 123.0782 133.3125 123 C 133.3125 122.9219 133.29425 122.84635 133.28125 122.78125 C 133.05988 122.79429 132.9401 122.73701 132.875 122.59375 C 132.80988 122.45055 132.73435 122.2995 132.65625 122.15625 C 132.513 122.15625 132.36196 122.1511 132.21875 122.125 C 132.08852 122.0859 131.95571 122.05735 131.8125 122.03125 z M 141.15625 128.1875 C 141.07817 128.36981 141.03124 128.53647 141.03125 128.71875 C 141.03124 128.97918 141.07815 129.23439 141.15625 129.46875 C 141.23434 129.70314 141.24999 129.95835 141.25 130.21875 C 141.24999 130.37501 141.23435 130.50782 141.15625 130.625 C 141.29947 130.76824 141.3854 130.95314 141.4375 131.1875 C 141.48959 131.42189 141.5365 131.66408 141.5625 131.9375 L 141.625 132.75 C 141.65103 133.01043 141.70315 133.24219 141.78125 133.4375 C 141.74215 133.6198 141.71874 133.79949 141.71875 133.96875 C 141.71875 134.26824 141.7604 134.5573 141.8125 134.84375 C 141.87759 135.13021 141.95833 135.39584 142.0625 135.65625 C 141.99742 135.7474 141.9505 135.86459 141.9375 135.96875 C 141.924 136.0599 141.93749 136.12765 141.9375 136.21875 C 142.04165 136.375 142.09374 136.59636 142.09375 136.84375 C 142.09375 136.96094 142.05725 137.07032 142.03125 137.1875 C 142.01875 137.30469 142.03124 137.4323 142.03125 137.5625 C 142.03125 137.73178 142.0599 137.88282 142.125 138 C 141.99478 138.33854 141.9141 138.6849 141.875 139.0625 C 141.849 139.4401 141.80725 139.82292 141.78125 140.1875 C 141.69009 140.22656 141.6146 140.26565 141.5625 140.34375 C 141.52341 140.40886 141.50785 140.50265 141.46875 140.59375 L 141.34375 140.84375 C 141.3177 140.9349 141.28385 141.0104 141.21875 141.0625 C 140.72395 141.01041 140.31249 140.87761 140 140.65625 C 139.70051 140.4349 139.43489 140.19271 139.1875 139.90625 C 138.95312 139.60678 138.73437 139.28126 138.5 138.96875 C 138.26562 138.64324 137.98176 138.3724 137.65625 138.125 C 137.44791 137.77344 137.22656 137.43751 137.03125 137.125 C 136.83593 136.79949 136.66926 136.48178 136.5 136.15625 C 136.33072 135.83074 136.16145 135.47657 136.03125 135.125 C 135.90103 134.77344 135.8151 134.38543 135.75 133.96875 C 135.61979 133.94272 135.5391 133.89844 135.5 133.78125 C 135.461 133.66407 135.43225 133.54167 135.40625 133.4375 L 135.40625 133.09375 C 135.40624 133.04167 135.40624 132.9896 135.40625 132.9375 C 135.41925 132.88538 135.44275 132.8516 135.46875 132.8125 C 135.42968 132.7609 135.35935 132.737 135.28125 132.75 C 135.21615 132.75 135.1875 132.72135 135.1875 132.65625 L 135.1875 132.59375 C 135.04427 132.03387 134.9401 131.46615 134.875 130.90625 C 134.82292 130.34636 134.71875 129.80991 134.5625 129.25 C 134.32812 129.10678 134.07291 129.0026 133.8125 128.9375 C 133.55208 128.87241 133.29166 128.8255 133.03125 128.8125 C 132.88801 128.90366 132.7786 129.00783 132.6875 129.125 C 132.59636 129.2422 132.51042 129.33335 132.40625 129.4375 C 132.34114 129.81512 132.276 130.20313 132.25 130.59375 C 132.2369 130.97136 132.23175 131.37241 132.21875 131.75 C 132.21875 132.12761 132.19535 132.48439 132.15625 132.875 C 132.13021 133.25262 132.0781 133.63543 132 134 C 131.97391 134.14324 131.9271 134.28907 131.875 134.40625 C 131.83591 134.52344 131.82035 134.6198 131.78125 134.75 C 131.76875 134.75 131.75 134.7865 131.75 134.8125 C 131.75 134.86458 131.75525 134.88025 131.78125 134.90625 C 131.82035 134.9323 131.84375 134.9974 131.84375 135.0625 L 131.8125 135.125 C 131.66927 135.67188 131.51302 136.20313 131.34375 136.75 C 131.1875 137.28386 131.06771 137.82813 130.9375 138.375 C 130.79427 138.92188 130.6536 139.47136 130.5625 140.03125 C 130.45835 140.59115 130.40625 141.15885 130.40625 141.71875 C 130.40625 142.17448 130.4714 142.66146 130.5625 143.15625 C 130.65364 143.66406 130.8151 144.09635 131.0625 144.5 C 131.21875 144.49999 131.32815 144.56515 131.40625 144.65625 C 131.48438 144.74736 131.625 144.78125 131.78125 144.78125 L 131.8125 144.78125 C 131.95573 144.66406 132.13542 144.58335 132.34375 144.53125 C 132.5651 144.49223 132.77344 144.45835 132.96875 144.40625 C 133.17708 144.35416 133.35676 144.2786 133.5 144.1875 C 133.64324 144.09635 133.71875 143.9401 133.71875 143.71875 C 133.71875 143.58854 133.6901 143.46094 133.625 143.34375 C 133.5599 143.23958 133.47916 143.13542 133.375 143.03125 C 133.28385 142.94011 133.17968 142.85935 133.0625 142.78125 C 132.94531 142.70312 132.8411 142.6276 132.75 142.5625 C 132.82808 142.48438 132.875 142.4036 132.875 142.3125 C 132.875 142.24739 132.83335 142.17185 132.78125 142.09375 C 132.72916 142.01563 132.68225 141.92185 132.65625 141.84375 C 132.64375 141.76562 132.65625 141.68485 132.65625 141.59375 L 132.65625 141.34375 C 132.65625 140.95313 132.6719 140.56511 132.75 140.1875 C 132.84112 139.8099 132.90624 139.4401 132.90625 139.0625 L 132.90625 138.875 C 132.90625 138.8099 132.888 138.7526 132.875 138.6875 C 132.97921 138.67449 133.0364 138.6406 133.0625 138.5625 C 133.10156 138.48437 133.15365 138.39585 133.21875 138.34375 L 133.21875 138.3125 C 133.23125 138.2994 133.25 138.29425 133.25 138.28125 C 133.25 138.21616 133.2396 138.16925 133.1875 138.15625 C 133.1354 138.14323 133.09375 138.09635 133.09375 138.03125 L 133.09375 138 C 133.18489 137.8698 133.2604 137.71876 133.3125 137.5625 C 133.37765 137.39324 133.42965 137.21876 133.46875 137.0625 C 133.50784 136.89323 133.55465 136.75 133.59375 136.59375 C 133.64583 136.42448 133.70315 136.26823 133.78125 136.125 C 134.04167 136.4375 134.27343 136.75522 134.46875 137.09375 C 134.66406 137.4323 134.80208 137.78386 134.90625 138.1875 C 134.97135 138.23962 135.0469 138.30465 135.125 138.34375 C 135.21614 138.38282 135.2734 138.45833 135.3125 138.5625 C 135.36459 138.66667 135.4115 138.7344 135.4375 138.8125 C 135.47656 138.89063 135.52865 139.00265 135.59375 139.09375 C 135.73697 139.31511 135.88801 139.48698 136.03125 139.65625 C 136.18749 139.82552 136.31515 140.05208 136.40625 140.3125 C 136.78385 140.59896 137.10676 140.91667 137.40625 141.28125 C 137.70572 141.63281 138.04166 141.95052 138.40625 142.25 C 138.67968 142.32813 138.91665 142.43229 139.125 142.5625 C 139.33332 142.69271 139.55468 142.82031 139.75 142.9375 C 139.95833 143.05468 140.17186 143.1589 140.40625 143.25 C 140.64061 143.34112 140.92447 143.40624 141.25 143.40625 L 141.28125 143.40625 C 141.35937 143.28906 141.45832 143.1901 141.5625 143.125 C 141.67968 143.05989 141.74215 142.97396 141.78125 142.84375 C 142.01561 142.80469 142.21874 142.71094 142.375 142.59375 C 142.53124 142.48959 142.66405 142.36198 142.78125 142.21875 C 142.89842 142.07552 143.02082 141.91927 143.125 141.75 C 143.24218 141.58073 143.37498 141.42448 143.53125 141.28125 C 143.58332 140.90365 143.6588 140.53385 143.75 140.15625 C 143.85415 139.77865 143.90624 139.40885 143.90625 139.03125 C 143.90625 138.92708 143.888 138.82292 143.875 138.71875 C 143.87499 138.60156 143.87499 138.47917 143.875 138.375 C 143.87499 138.20574 143.87499 138.03126 143.875 137.875 C 143.8875 137.71876 143.90624 137.5573 143.90625 137.375 C 143.90624 136.77605 143.83071 136.19792 143.6875 135.625 C 143.55728 135.03907 143.4401 134.44272 143.375 133.84375 C 143.3229 133.37501 143.29425 132.88803 143.28125 132.40625 C 143.26822 131.92449 143.22916 131.46876 143.125 131 C 143.19005 130.92189 143.24215 130.8411 143.28125 130.75 C 143.33337 130.64584 143.36715 130.5286 143.40625 130.4375 C 143.45832 130.34636 143.52865 130.28385 143.59375 130.21875 C 143.67186 130.14063 143.77603 130.0755 143.90625 130.0625 C 143.88015 129.88022 143.86715 129.76042 143.90625 129.65625 C 143.95834 129.53907 144.00515 129.40626 144.03125 129.25 C 143.96613 129.13282 143.86718 129.03385 143.75 128.96875 C 143.64582 128.90366 143.55468 128.83335 143.4375 128.78125 C 143.3203 128.71616 143.1979 128.65885 143.09375 128.59375 C 142.98957 128.52866 142.8906 128.44793 142.8125 128.34375 C 142.53905 128.34375 142.2552 128.32035 141.96875 128.28125 C 141.6953 128.22915 141.4427 128.2005 141.15625 128.1875 z "
       id="path5" />
    <g
       transform="translate(-4.9858135,1.1870985)"
       id="text2990"
       style="font-size:40px;font-style:normal;font-weight:normal;line-height:125%;letter-spacing:0px;word-spacing:0px;fill:#000000;fill-opacity:1;stroke:none;font-family:Sans" />
    <g
       id="text3775"
       style="font-size:44.55545044px;font-style:normal;font-weight:normal;line-height:125%;letter-spacing:0px;word-spacing:0px;fill:#000000;fill-opacity:1;stroke:none;font-family:Sans"
       transform="matrix(0.94271182,-0.16631508,0.1814941,1.02875,0,0)" />
    <g
       id="text3779"
       style="font-size:40px;font-style:normal;font-weight:normal;line-height:125%;letter-spacing:0px;word-spacing:0px;fill:#000000;fill-opacity:1;stroke:none;font-family:Sans"
       inkscape:transform-center-y="4.9497475"
       inkscape:transform-center-x="-3.1819805"
       transform="matrix(0.98745732,-0.15788614,0.15788614,0.98745732,0,0)" />
    <g
       id="text3783"
       style="font-size:40px;font-style:normal;font-weight:normal;line-height:125%;letter-spacing:0px;word-spacing:0px;fill:#000000;fill-opacity:1;stroke:none;font-family:Sans"
       inkscape:transform-center-y="-4.2094968"
       transform="matrix(0.99036422,-0.13848722,0.13848722,0.99036422,0,0)" />
  </g>
</svg>
