<?xml version="1.0" encoding="iso-8859-1"?>
<!-- Generator: Adobe Illustrator 16.0.0, SVG Export Plug-In . SVG Version: 6.00 Build 0)  -->
<!DOCTYPE svg PUBLIC "-//W3C//DTD SVG 1.1//EN" "http://www.w3.org/Graphics/SVG/1.1/DTD/svg11.dtd">
<svg version="1.1" id="Capa_1" xmlns="http://www.w3.org/2000/svg" xmlns:xlink="http://www.w3.org/1999/xlink" x="0px" y="0px"
	 width="45.5px" height="45.5px" viewBox="0 0 45.5 45.5" style="enable-background:new 0 0 45.5 45.5;" xml:space="preserve">
<g>
	<path d="M42.5,1.445H3c-1.657,0-3,1.343-3,3v36.609c0,1.658,1.343,3,3,3h39.5c1.656,0,3-1.342,3-3V4.445
		C45.5,2.788,44.156,1.445,42.5,1.445z M37.636,26.256c0,0.554-0.446,1-1,1h-8.379c-0.554,0-1,0.446-1,1v8.379c0,0.554-0.447,1-1,1
		h-7.014c-0.553,0-1-0.446-1-1v-8.379c0-0.554-0.447-1-1-1H8.864c-0.553,0-1-0.446-1-1v-7.013c0-0.553,0.447-1,1-1h8.379
		c0.553,0,1-0.447,1-1V8.865c0-0.553,0.447-1,1-1h7.014c0.553,0,1,0.447,1,1v8.378c0,0.553,0.446,1,1,1h8.379c0.554,0,1,0.447,1,1
		V26.256z"/>
</g>
<g>
</g>
<g>
</g>
<g>
</g>
<g>
</g>
<g>
</g>
<g>
</g>
<g>
</g>
<g>
</g>
<g>
</g>
<g>
</g>
<g>
</g>
<g>
</g>
<g>
</g>
<g>
</g>
<g>
</g>
</svg>
