<?xml version="1.0" encoding="iso-8859-1"?>
<!-- Generator: Adobe Illustrator 16.0.0, SVG Export Plug-In . SVG Version: 6.00 Build 0)  -->
<!DOCTYPE svg PUBLIC "-//W3C//DTD SVG 1.1//EN" "http://www.w3.org/Graphics/SVG/1.1/DTD/svg11.dtd">
<svg version="1.1" id="Capa_1" xmlns="http://www.w3.org/2000/svg" xmlns:xlink="http://www.w3.org/1999/xlink" x="0px" y="0px"
	 width="106.048px" height="106.048px" viewBox="0 0 106.048 106.048" style="enable-background:new 0 0 106.048 106.048;"
	 xml:space="preserve">
<g>
	<path style="fill:#010002;" d="M52.234,34.74H40.902v36.579h7.987V57.058h5.306c1.932,0,5.634,0,8.326-1.725
		c2.884-1.885,4.671-5.481,4.671-9.742c0-1.877-0.321-4.528-2.232-6.856C61.904,35.071,57.498,34.74,52.234,34.74z M51.82,51.222
		h-3.162V40.669h3.978c2.222,0,6.437,0,6.437,4.974C59.072,51.222,54.359,51.222,51.82,51.222z M84.838,0H21.209
		C9.543,0,0,9.543,0,21.209v63.629c0,11.666,9.543,21.21,21.209,21.21h63.628c11.667,0,21.21-9.544,21.21-21.21V21.209
		C106.048,9.543,96.505,0,84.838,0z M85.408,50.543c1.651,4.603,2.558,7.98,2.729,10.092c0.062,4.717-1.3,8.911-4.106,12.634
		c-2.185,2.631-5.623,5.577-10.325,8.845c-1.289,0.829-3.334,1.75-6.131,2.729c-1.449,0.522-2.661,0.979-3.646,1.361
		c-0.979,0.378-1.781,0.725-2.392,1.02c-0.357,0.161-0.979,0.431-1.803,0.782c-0.828,0.399-1.863,0.85-3.075,1.378
		c-1.729,0.994-3.024,2.112-3.848,3.407c-0.673-1.191-1.939-2.341-3.749-3.407c-0.836-0.379-1.644-0.726-2.392-1.072
		c-0.751-0.347-1.559-0.709-2.379-1.088c-2.874-0.74-6.978-2.459-12.28-5.11c-4.847-3.268-8.337-6.266-10.458-8.969
		c-2.708-3.712-4.028-7.881-3.972-12.51c0.086-1.057,0.329-2.465,0.733-4.194c0.43-1.74,1.054-3.832,1.887-6.24
		c1.59-4.336,2.302-7.692,2.152-10.131c-0.306-5.297-1.867-10.372-4.661-15.218l11.374-11.135c3.485,2.661,7.381,4.163,11.692,4.538
		c4.168,0.319,8.171-0.476,12.052-2.374c3.774,1.963,7.793,2.758,12.028,2.374c4.63-0.295,8.71-1.973,12.288-4.999l11.346,11.141
		c-2.962,4.777-4.64,9.994-5.106,15.674C83.14,42.579,83.834,46.062,85.408,50.543z"/>
</g>
<g>
</g>
<g>
</g>
<g>
</g>
<g>
</g>
<g>
</g>
<g>
</g>
<g>
</g>
<g>
</g>
<g>
</g>
<g>
</g>
<g>
</g>
<g>
</g>
<g>
</g>
<g>
</g>
<g>
</g>
</svg>
