<?xml version="1.0" encoding="iso-8859-1"?>
<!-- Generator: Adobe Illustrator 18.1.1, SVG Export Plug-In . SVG Version: 6.00 Build 0)  -->
<svg version="1.1" id="Capa_1" xmlns="http://www.w3.org/2000/svg" xmlns:xlink="http://www.w3.org/1999/xlink" x="0px" y="0px"
	 viewBox="0 0 448.657 448.657" style="enable-background:new 0 0 448.657 448.657;" xml:space="preserve">
<g>
	<g>
		<g>
			<path style="fill:#010002;" d="M434.456,295.47V169.46l11.079-3.747l-11.079-3.731l-4.357-1.471L222.78,90.654L0,165.721
				l82.05,27.653l-0.024,0.065l8.332,2.731l19.11,6.6l0.008-0.033l114.849,36.294l113.743-36.798l0.016,0.073l25.247-8.559
				l-0.098-0.285l60.794-20.492v120.709l-16.558,29.889l21.207,34.433l19.98-34.603L434.456,295.47z M428.636,337.161l-8.007-15.298
				l7.649-16.07l8.25,16.225L428.636,337.161z"/>
		</g>
		<g>
			<path style="fill:#010002;" d="M223.56,254.396l-104.306-32.978l-5.446,23.825c-1.171,1.959-1.756,3.934-1.756,5.934
				c0,18.72,82.318,65.484,107.793,65.484c26.255,0,116.734-47.251,116.734-65.484c0-1.382-0.276-2.601-0.715-4.438
				c-0.26-1.065-0.602-2.422-0.959-4.235l-5.397-21.907l-105.167,34.034L223.56,254.396z"/>
		</g>
	</g>
</g>
<g>
</g>
<g>
</g>
<g>
</g>
<g>
</g>
<g>
</g>
<g>
</g>
<g>
</g>
<g>
</g>
<g>
</g>
<g>
</g>
<g>
</g>
<g>
</g>
<g>
</g>
<g>
</g>
<g>
</g>
</svg>
